<?xml version="1.0" encoding="UTF-8"?>
<svg width="340px" height="214px" viewBox="0 0 340 214" version="1.1" xmlns="http://www.w3.org/2000/svg" xmlns:xlink="http://www.w3.org/1999/xlink">
    <!-- Generator: Sketch 53.2 (72643) - https://sketchapp.com -->
    <title>CA_Card_Skin</title>
    <desc>Created with Sketch.</desc>
    <defs>
        <rect id="path-1" x="0" y="0" width="340" height="214" rx="18"></rect>
    </defs>
    <g id="CA_Card_Skin" stroke="none" stroke-width="1" fill="none" fill-rule="evenodd">
        <g id="Combined-Shape-Copy">
            <mask id="mask-2" fill="white">
                <use xlink:href="#path-1"></use>
            </mask>
            <use id="Mask" fill="#FFFFFF" xlink:href="#path-1"></use>
            <path d="M110.364366,-92.1801291 L181.937778,-54.501372 L-29.3338384,57.9473684 L-104.050065,18.6145115 C-109.303602,15.8471075 -109.320222,8.30100749 -104.078319,5.51023572 L79.3317695,-92.1083569 C89.0311178,-97.27262 100.64175,-97.2976568 110.364366,-92.1801291 Z M-7.85975395,15.5560062 C-1.53605008,12.3248142 -1.55615192,3.58396369 -7.89493217,0.38183795 L-10.4562416,-0.911607696 C-17.6677768,-4.5561855 -26.2797401,-4.53680804 -33.4745237,-0.86154925 L-47.7485054,6.43083594 C-54.0738844,9.66202787 -54.0521074,18.4012636 -47.7133271,21.6050042 L-45.1536928,22.8984498 C-37.9404825,26.5430276 -29.3285192,26.5236501 -22.1337356,22.8483914 L-7.85975395,15.5560062 Z M238.461314,73.4263384 C239.677281,76.7369168 238.795664,80.4997511 236.210695,82.8163426 C233.713888,85.051593 229.902973,87.1973684 224.46356,87.1973684 C219.022485,87.1973684 215.209906,85.051593 212.714762,82.8163426 C210.129794,80.4997511 209.248176,76.7369168 210.465806,73.4263384 L215.693963,39.3835062 C216.123128,36.5902565 217.89967,34.2980673 220.304988,33.0421624 L220.304988,-6.54975233 L49.9598909,81.7426415 C40.25212,86.7743953 28.6297425,86.8004244 18.900347,81.8109679 L-0.0444444444,72.1004802 L211.407307,-37.5 L233.500969,-26.1740802 C238.759068,-23.4784397 238.774039,-16.1219603 233.529248,-13.4035444 L228.622133,-10.8608249 L228.622133,33.0437892 C231.027451,34.2996941 232.802329,36.5902565 233.229831,39.3835062 L238.461314,73.4263384 Z M19.5725251,94.4496685 C29.3112816,99.540808 40.9411881,99.5159003 50.6566382,94.3799268 L160.346667,36.3947368 L160.346667,86.7315939 C160.346667,115.046699 118.228626,138 66.2719435,138 C14.3152613,138 -27.8044444,115.046699 -27.8044444,86.7315939 L-27.8044444,69.6797636 L19.5725251,94.4496685 Z" fill="#FD5C63" mask="url(#mask-2)"></path>
        </g>
        <g id="shapes-2" transform="translate(250.000000, 149.000000)" fill-rule="nonzero">
            <g id="shapes">
                <polygon id="middle" fill="#FF5F00" points="25.9932203 5.14130435 44.9466102 5.14130435 44.9466102 38.9782609 25.9932203 38.9782609"></polygon>
                <path d="M27.1966102,22.0597826 C27.1966102,15.1847826 30.4457627,9.08695652 35.4398305,5.14130435 C31.7694915,2.27173913 27.1364407,0.538043478 22.0822034,0.538043478 C10.1084746,0.538043478 0.421186441,10.1630435 0.421186441,22.0597826 C0.421186441,33.9565217 10.1084746,43.5815217 22.0822034,43.5815217 C27.1364407,43.5815217 31.7694915,41.8478261 35.4398305,38.9782609 C30.4457627,35.0923913 27.1966102,28.9347826 27.1966102,22.0597826 Z" id="red" fill="#EB001B"></path>
                <path d="M70.5186441,22.0597826 C70.5186441,33.9565217 60.8313559,43.5815217 48.8576271,43.5815217 C43.8033898,43.5815217 39.170339,41.8478261 35.5,38.9782609 C40.5542373,35.0326087 43.7432203,28.9347826 43.7432203,22.0597826 C43.7432203,15.1847826 40.4940678,9.08695652 35.5,5.14130435 C39.170339,2.27173913 43.8033898,0.538043478 48.8576271,0.538043478 C60.8313559,0.538043478 70.5186441,10.2228261 70.5186441,22.0597826 Z" id="orange" fill="#F79E1B"></path>
            </g>
        </g>
        <path d="M23.44,190 L23.44,178.8 L25.536,178.8 L28.944,184.096 L32.352,178.8 L34.448,178.8 L34.448,190 L32.48,190 L32.48,181.968 L28.944,187.248 L28.88,187.248 L25.376,182 L25.376,190 L23.44,190 Z M44.392,190 L42.472,190 L42.472,188.96 C41.896,189.648 41.016,190.176 39.736,190.176 C38.136,190.176 36.728,189.264 36.728,187.536 C36.728,185.664 38.184,184.768 40.152,184.768 C41.176,184.768 41.832,184.912 42.488,185.12 L42.488,184.96 C42.488,183.792 41.752,183.152 40.408,183.152 C39.464,183.152 38.76,183.36 37.992,183.68 L37.464,182.128 C38.392,181.712 39.304,181.424 40.68,181.424 C43.176,181.424 44.392,182.736 44.392,184.992 L44.392,190 Z M42.52,186.944 L42.52,186.464 C42.024,186.272 41.336,186.128 40.584,186.128 C39.368,186.128 38.648,186.624 38.648,187.472 C38.648,188.272 39.368,188.72 40.28,188.72 C41.56,188.72 42.52,188 42.52,186.944 Z M46.896,190 L46.896,181.552 L48.832,181.552 L48.832,183.456 C49.36,182.192 50.336,181.328 51.824,181.392 L51.824,183.44 L51.712,183.44 C50.016,183.44 48.832,184.544 48.832,186.784 L48.832,190 L46.896,190 Z M57.608,190.192 C55.096,190.192 53.24,188.224 53.24,185.792 C53.24,183.392 55.096,181.376 57.624,181.376 C59.224,181.376 60.216,181.968 61,182.832 L59.8,184.128 C59.208,183.504 58.584,183.072 57.608,183.072 C56.2,183.072 55.176,184.288 55.176,185.792 C55.176,187.296 56.216,188.512 57.704,188.512 C58.616,188.512 59.288,188.08 59.896,187.456 L61.064,188.608 C60.232,189.536 59.256,190.192 57.608,190.192 Z" id="Marc" fill="#69778D" fill-rule="nonzero"></path>
        <path d="M257.136,41.08 L252.48,29.8 L254.656,29.8 L258.032,38.408 L261.392,29.8 L263.52,29.8 L258.864,41.08 L257.136,41.08 Z M265.128,31.256 L265.128,29.416 L267.208,29.416 L267.208,31.256 L265.128,31.256 Z M265.208,41 L265.208,32.552 L267.144,32.552 L267.144,41 L265.208,41 Z M269.872,41 L269.872,32.552 L271.808,32.552 L271.808,34.456 C272.336,33.192 273.312,32.328 274.8,32.392 L274.8,34.44 L274.688,34.44 C272.992,34.44 271.808,35.544 271.808,37.784 L271.808,41 L269.872,41 Z M279.512,41.144 C278.088,41.144 277.08,40.52 277.08,38.664 L277.08,34.216 L276.008,34.216 L276.008,32.552 L277.08,32.552 L277.08,30.232 L279.016,30.232 L279.016,32.552 L281.288,32.552 L281.288,34.216 L279.016,34.216 L279.016,38.36 C279.016,39.112 279.4,39.416 280.056,39.416 C280.488,39.416 280.872,39.32 281.256,39.128 L281.256,40.712 C280.776,40.984 280.232,41.144 279.512,41.144 Z M286.352,41.176 C284.448,41.176 283.344,39.896 283.344,37.928 L283.344,32.552 L285.28,32.552 L285.28,37.352 C285.28,38.664 285.936,39.416 287.088,39.416 C288.208,39.416 288.992,38.632 288.992,37.32 L288.992,32.552 L290.928,32.552 L290.928,41 L288.992,41 L288.992,39.688 C288.448,40.488 287.664,41.176 286.352,41.176 Z M300.648,41 L298.728,41 L298.728,39.96 C298.152,40.648 297.272,41.176 295.992,41.176 C294.392,41.176 292.984,40.264 292.984,38.536 C292.984,36.664 294.44,35.768 296.408,35.768 C297.432,35.768 298.088,35.912 298.744,36.12 L298.744,35.96 C298.744,34.792 298.008,34.152 296.664,34.152 C295.72,34.152 295.016,34.36 294.248,34.68 L293.72,33.128 C294.648,32.712 295.56,32.424 296.936,32.424 C299.432,32.424 300.648,33.736 300.648,35.992 L300.648,41 Z M298.776,37.944 L298.776,37.464 C298.28,37.272 297.592,37.128 296.84,37.128 C295.624,37.128 294.904,37.624 294.904,38.472 C294.904,39.272 295.624,39.72 296.536,39.72 C297.816,39.72 298.776,39 298.776,37.944 Z M303.264,41 L303.264,29.32 L305.2,29.32 L305.2,41 L303.264,41 Z M252.48,61 L257.408,49.72 L259.232,49.72 L264.16,61 L262.08,61 L260.944,58.296 L255.648,58.296 L254.496,61 L252.48,61 Z M256.368,56.552 L260.224,56.552 L258.288,52.072 L256.368,56.552 Z M269.56,61.192 C267.048,61.192 265.192,59.224 265.192,56.792 C265.192,54.392 267.048,52.376 269.576,52.376 C271.176,52.376 272.168,52.968 272.952,53.832 L271.752,55.128 C271.16,54.504 270.536,54.072 269.56,54.072 C268.152,54.072 267.128,55.288 267.128,56.792 C267.128,58.296 268.168,59.512 269.656,59.512 C270.568,59.512 271.24,59.08 271.848,58.456 L273.016,59.608 C272.184,60.536 271.208,61.192 269.56,61.192 Z M278.656,61.192 C276.144,61.192 274.288,59.224 274.288,56.792 C274.288,54.392 276.144,52.376 278.672,52.376 C280.272,52.376 281.264,52.968 282.048,53.832 L280.848,55.128 C280.256,54.504 279.632,54.072 278.656,54.072 C277.248,54.072 276.224,55.288 276.224,56.792 C276.224,58.296 277.264,59.512 278.752,59.512 C279.664,59.512 280.336,59.08 280.944,58.456 L282.112,59.608 C281.28,60.536 280.304,61.192 278.656,61.192 Z M287.864,61.192 C285.288,61.192 283.384,59.224 283.384,56.792 C283.384,54.376 285.304,52.376 287.896,52.376 C290.488,52.376 292.392,54.344 292.392,56.792 C292.392,59.192 290.472,61.192 287.864,61.192 Z M287.896,59.512 C289.464,59.512 290.456,58.28 290.456,56.792 C290.456,55.304 289.384,54.072 287.864,54.072 C286.312,54.072 285.32,55.288 285.32,56.792 C285.32,58.264 286.392,59.512 287.896,59.512 Z M297.472,61.176 C295.568,61.176 294.464,59.896 294.464,57.928 L294.464,52.552 L296.4,52.552 L296.4,57.352 C296.4,58.664 297.056,59.416 298.208,59.416 C299.328,59.416 300.112,58.632 300.112,57.32 L300.112,52.552 L302.048,52.552 L302.048,61 L300.112,61 L300.112,59.688 C299.568,60.488 298.784,61.176 297.472,61.176 Z M304.68,61 L304.68,52.552 L306.616,52.552 L306.616,53.864 C307.16,53.064 307.944,52.376 309.256,52.376 C311.16,52.376 312.264,53.656 312.264,55.624 L312.264,61 L310.328,61 L310.328,56.2 C310.328,54.888 309.672,54.136 308.52,54.136 C307.4,54.136 306.616,54.92 306.616,56.232 L306.616,61 L304.68,61 Z M317.632,61.144 C316.208,61.144 315.2,60.52 315.2,58.664 L315.2,54.216 L314.128,54.216 L314.128,52.552 L315.2,52.552 L315.2,50.232 L317.136,50.232 L317.136,52.552 L319.408,52.552 L319.408,54.216 L317.136,54.216 L317.136,58.36 C317.136,59.112 317.52,59.416 318.176,59.416 C318.608,59.416 318.992,59.32 319.376,59.128 L319.376,60.712 C318.896,60.984 318.352,61.144 317.632,61.144 Z" id="VirtualAccount" fill="#69778D" fill-rule="nonzero" transform="translate(285.944000, 45.256000) rotate(-360.000000) translate(-285.944000, -45.256000) "></path>
        <path d="M264.524,138 L264.524,126.8 L268.7,126.8 C272.22,126.8 274.652,129.216 274.652,132.4 C274.652,135.552 272.22,138 268.7,138 L264.524,138 Z M266.492,136.208 L268.7,136.208 C271.052,136.208 272.588,134.624 272.588,132.4 C272.588,130.208 271.052,128.592 268.7,128.592 L266.492,128.592 L266.492,136.208 Z M280.884,138.192 C278.436,138.192 276.548,136.416 276.548,133.776 C276.548,131.36 278.26,129.376 280.676,129.376 C283.364,129.376 284.724,131.488 284.724,133.92 C284.724,134.048 284.708,134.368 284.692,134.464 L278.484,134.464 C278.692,135.84 279.668,136.608 280.916,136.608 C281.86,136.608 282.532,136.256 283.204,135.6 L284.34,136.608 C283.54,137.568 282.436,138.192 280.884,138.192 Z M278.468,133.184 L282.804,133.184 C282.676,131.936 281.94,130.96 280.66,130.96 C279.476,130.96 278.644,131.872 278.468,133.184 Z M291.676,138.176 C290.284,138.176 289.404,137.472 288.812,136.688 L288.812,138 L286.876,138 L286.876,126.32 L288.812,126.32 L288.812,130.96 C289.436,130.08 290.316,129.376 291.676,129.376 C293.676,129.376 295.612,130.96 295.612,133.792 C295.612,136.592 293.692,138.176 291.676,138.176 Z M291.228,136.496 C292.556,136.496 293.644,135.456 293.644,133.76 C293.644,132.128 292.54,131.056 291.228,131.056 C289.916,131.056 288.764,132.144 288.764,133.792 C288.764,135.424 289.916,136.496 291.228,136.496 Z M297.828,128.256 L297.828,126.416 L299.908,126.416 L299.908,128.256 L297.828,128.256 Z M297.908,138 L297.908,129.552 L299.844,129.552 L299.844,138 L297.908,138 Z M305.404,138.144 C303.98,138.144 302.972,137.52 302.972,135.664 L302.972,131.216 L301.9,131.216 L301.9,129.552 L302.972,129.552 L302.972,127.232 L304.908,127.232 L304.908,129.552 L307.18,129.552 L307.18,131.216 L304.908,131.216 L304.908,135.36 C304.908,136.112 305.292,136.416 305.948,136.416 C306.38,136.416 306.764,136.32 307.148,136.128 L307.148,137.712 C306.668,137.984 306.124,138.144 305.404,138.144 Z" id="Debit" fill="#69778D" fill-rule="nonzero" transform="translate(285.852000, 132.256000) rotate(-360.000000) translate(-285.852000, -132.256000) "></path>
    </g>
</svg>