<?xml version="1.0" encoding="UTF-8"?>
<svg width="340px" height="214px" viewBox="0 0 340 214" version="1.1" xmlns="http://www.w3.org/2000/svg" xmlns:xlink="http://www.w3.org/1999/xlink">
    <!-- Generator: Sketch 53.2 (72643) - https://sketchapp.com -->
    <title>Card design</title>
    <desc>Created with Sketch.</desc>
    <defs>
        <rect id="path-1" x="0" y="0" width="340" height="214" rx="18"></rect>
    </defs>
    <g id="Card-design" stroke="none" stroke-width="1" fill="none" fill-rule="evenodd">
        <g id="Combined-Shape-Copy">
            <mask id="mask-2" fill="white">
                <use xlink:href="#path-1"></use>
            </mask>
            <use id="Mask" fill="#FFFFFF" xlink:href="#path-1"></use>
            <path d="M109.364366,-98.1801291 L180.937778,-60.501372 L-30.3338384,51.9473684 L-105.050065,12.6145115 C-110.303602,9.84710747 -110.320222,2.30100749 -105.078319,-0.489764278 L78.3317695,-98.1083569 C88.0311178,-103.27262 99.6417496,-103.297657 109.364366,-98.1801291 Z M-8.85975395,9.55600616 C-2.53605008,6.32481423 -2.55615192,-2.41603631 -8.89493217,-5.61816205 L-11.4562416,-6.9116077 C-18.6677768,-10.5561855 -27.2797401,-10.536808 -34.4745237,-6.86154925 L-48.7485054,0.430835942 C-55.0738844,3.66202787 -55.0521074,12.4012636 -48.7133271,15.6050042 L-46.1536928,16.8984498 C-38.9404825,20.5430276 -30.3285192,20.5236501 -23.1337356,16.8483914 L-8.85975395,9.55600616 Z M237.461314,67.4263384 C238.677281,70.7369168 237.795664,74.4997511 235.210695,76.8163426 C232.713888,79.051593 228.902973,81.1973684 223.46356,81.1973684 C218.022485,81.1973684 214.209906,79.051593 211.714762,76.8163426 C209.129794,74.4997511 208.248176,70.7369168 209.465806,67.4263384 L214.693963,33.3835062 C215.123128,30.5902565 216.89967,28.2980673 219.304988,27.0421624 L219.304988,-12.5497523 L48.9598909,75.7426415 C39.25212,80.7743953 27.6297425,80.8004244 17.900347,75.8109679 L-1.04444444,66.1004802 L210.407307,-43.5 L232.500969,-32.1740802 C237.759068,-29.4784397 237.774039,-22.1219603 232.529248,-19.4035444 L227.622133,-16.8608249 L227.622133,27.0437892 C230.027451,28.2996941 231.802329,30.5902565 232.229831,33.3835062 L237.461314,67.4263384 Z M18.5725251,88.4496685 C28.3112816,93.540808 39.9411881,93.5159003 49.6566382,88.3799268 L159.346667,30.3947368 L159.346667,80.7315939 C159.346667,109.046699 117.228626,132 65.2719435,132 C13.3152613,132 -28.8044444,109.046699 -28.8044444,80.7315939 L-28.8044444,63.6797636 L18.5725251,88.4496685 Z" fill="#FD5C63" mask="url(#mask-2)"></path>
        </g>
        <path d="M266.46,125.12 C266.860002,125.12 267.246665,125.040001 267.62,124.88 C267.993335,124.719999 268.319999,124.490002 268.6,124.19 C268.880001,123.889999 269.103333,123.533335 269.27,123.12 C269.436667,122.706665 269.52,122.246669 269.52,121.74 L269.52,121.7 C269.52,121.193331 269.436667,120.730002 269.27,120.31 C269.103333,119.889998 268.880001,119.533335 268.6,119.24 C268.319999,118.946665 267.993335,118.720001 267.62,118.56 C267.246665,118.399999 266.860002,118.32 266.46,118.32 C266.046665,118.32 265.656669,118.396666 265.29,118.55 C264.923332,118.703334 264.600001,118.926665 264.32,119.22 C264.039999,119.513335 263.820001,119.869998 263.66,120.29 C263.499999,120.710002 263.42,121.179997 263.42,121.7 L263.42,121.74 C263.42,122.246669 263.499999,122.709998 263.66,123.13 C263.820001,123.550002 264.039999,123.906665 264.32,124.2 C264.600001,124.493335 264.923332,124.719999 265.29,124.88 C265.656669,125.040001 266.046665,125.12 266.46,125.12 Z M265.88,127.22 C265.25333,127.22 264.64667,127.100001 264.06,126.86 C263.47333,126.619999 262.953336,126.266669 262.5,125.8 C262.046664,125.333331 261.680001,124.760003 261.4,124.08 C261.119999,123.399997 260.98,122.620004 260.98,121.74 L260.98,121.7 C260.98,120.819996 261.116665,120.040003 261.39,119.36 C261.663335,118.679997 262.026664,118.106669 262.48,117.64 C262.933336,117.173331 263.456664,116.820001 264.05,116.58 C264.643336,116.339999 265.25333,116.22 265.88,116.22 C266.746671,116.22 267.466664,116.406665 268.04,116.78 C268.613336,117.153335 269.093331,117.586664 269.48,118.08 L269.48,112.4 L271.9,112.4 L271.9,127 L269.48,127 L269.48,125.24 C269.093331,125.786669 268.610003,126.253331 268.03,126.64 C267.449997,127.026669 266.733338,127.22 265.88,127.22 Z M282.16,120.98 C282.12,120.593331 282.033334,120.230002 281.9,119.89 C281.766666,119.549998 281.586668,119.256668 281.36,119.01 C281.133332,118.763332 280.863335,118.566667 280.55,118.42 C280.236665,118.273333 279.880002,118.2 279.48,118.2 C278.73333,118.2 278.116669,118.456664 277.63,118.97 C277.143331,119.483336 276.846667,120.153329 276.74,120.98 L282.16,120.98 Z M279.76,127.24 C278.999996,127.24 278.290003,127.106668 277.63,126.84 C276.969997,126.573332 276.396669,126.200002 275.91,125.72 C275.423331,125.239998 275.040001,124.663337 274.76,123.99 C274.479999,123.316663 274.34,122.573337 274.34,121.76 L274.34,121.72 C274.34,120.959996 274.466665,120.24667 274.72,119.58 C274.973335,118.91333 275.329998,118.330003 275.79,117.83 C276.250002,117.329998 276.79333,116.936668 277.42,116.65 C278.04667,116.363332 278.739996,116.22 279.5,116.22 C280.340004,116.22 281.076663,116.373332 281.71,116.68 C282.343337,116.986668 282.869998,117.399997 283.29,117.92 C283.710002,118.440003 284.026666,119.04333 284.24,119.73 C284.453334,120.41667 284.56,121.139996 284.56,121.9 C284.56,122.006667 284.556667,122.116666 284.55,122.23 C284.543333,122.343334 284.533333,122.459999 284.52,122.58 L276.76,122.58 C276.893334,123.446671 277.236664,124.109998 277.79,124.57 C278.343336,125.030002 279.013329,125.26 279.8,125.26 C280.400003,125.26 280.919998,125.153334 281.36,124.94 C281.800002,124.726666 282.233331,124.413335 282.66,124 L284.08,125.26 C283.573331,125.860003 282.970004,126.339998 282.27,126.7 C281.569997,127.060002 280.733338,127.24 279.76,127.24 Z M292.44,125.12 C292.853335,125.12 293.243332,125.040001 293.61,124.88 C293.976669,124.719999 294.296665,124.496668 294.57,124.21 C294.843335,123.923332 295.059999,123.570002 295.22,123.15 C295.380001,122.729998 295.46,122.260003 295.46,121.74 L295.46,121.7 C295.46,121.193331 295.380001,120.730002 295.22,120.31 C295.059999,119.889998 294.843335,119.533335 294.57,119.24 C294.296665,118.946665 293.976669,118.720001 293.61,118.56 C293.243332,118.399999 292.853335,118.32 292.44,118.32 C292.026665,118.32 291.633335,118.399999 291.26,118.56 C290.886665,118.720001 290.560001,118.949998 290.28,119.25 C289.999999,119.550002 289.776668,119.906665 289.61,120.32 C289.443332,120.733335 289.36,121.193331 289.36,121.7 L289.36,121.74 C289.36,122.246669 289.443332,122.709998 289.61,123.13 C289.776668,123.550002 289.999999,123.906665 290.28,124.2 C290.560001,124.493335 290.886665,124.719999 291.26,124.88 C291.633335,125.040001 292.026665,125.12 292.44,125.12 Z M293,127.22 C292.133329,127.22 291.413336,127.033335 290.84,126.66 C290.266664,126.286665 289.793335,125.853336 289.42,125.36 L289.42,127 L287,127 L287,112.4 L289.42,112.4 L289.42,118.2 C289.806669,117.639997 290.286664,117.170002 290.86,116.79 C291.433336,116.409998 292.146662,116.22 293,116.22 C293.62667,116.22 294.23333,116.339999 294.82,116.58 C295.40667,116.820001 295.929998,117.173331 296.39,117.64 C296.850002,118.106669 297.219999,118.679997 297.5,119.36 C297.780001,120.040003 297.92,120.819996 297.92,121.7 L297.92,121.74 C297.92,122.620004 297.783335,123.399997 297.51,124.08 C297.236665,124.760003 296.870002,125.333331 296.41,125.8 C295.949998,126.266669 295.423336,126.619999 294.83,126.86 C294.236664,127.100001 293.62667,127.22 293,127.22 Z M300.54,116.44 L302.96,116.44 L302.96,127 L300.54,127 L300.54,116.44 Z M300.44,112.52 L303.04,112.52 L303.04,114.82 L300.44,114.82 L300.44,112.52 Z M309.66,127.18 C309.219998,127.18 308.813335,127.126667 308.44,127.02 C308.066665,126.913333 307.743335,126.740001 307.47,126.5 C307.196665,126.259999 306.986667,125.943335 306.84,125.55 C306.693333,125.156665 306.62,124.66667 306.62,124.08 L306.62,118.52 L305.28,118.52 L305.28,116.44 L306.62,116.44 L306.62,113.54 L309.04,113.54 L309.04,116.44 L311.88,116.44 L311.88,118.52 L309.04,118.52 L309.04,123.7 C309.04,124.166669 309.153332,124.503332 309.38,124.71 C309.606668,124.916668 309.926665,125.02 310.34,125.02 C310.860003,125.02 311.359998,124.900001 311.84,124.66 L311.84,126.64 C311.533332,126.813334 311.206668,126.946666 310.86,127.04 C310.513332,127.133334 310.113336,127.18 309.66,127.18 Z" id="debit" fill="#69778D" fill-rule="nonzero" transform="translate(286.430000, 119.820000) rotate(-360.000000) translate(-286.430000, -119.820000) "></path>
        <g id="shapes-2" transform="translate(252.000000, 147.000000)" fill-rule="nonzero">
            <g id="shapes">
                <polygon id="middle" fill="#FF5F00" points="25.9932203 5.14130435 44.9466102 5.14130435 44.9466102 38.9782609 25.9932203 38.9782609"></polygon>
                <path d="M27.1966102,22.0597826 C27.1966102,15.1847826 30.4457627,9.08695652 35.4398305,5.14130435 C31.7694915,2.27173913 27.1364407,0.538043478 22.0822034,0.538043478 C10.1084746,0.538043478 0.421186441,10.1630435 0.421186441,22.0597826 C0.421186441,33.9565217 10.1084746,43.5815217 22.0822034,43.5815217 C27.1364407,43.5815217 31.7694915,41.8478261 35.4398305,38.9782609 C30.4457627,35.0923913 27.1966102,28.9347826 27.1966102,22.0597826 Z" id="red" fill="#EB001B"></path>
                <path d="M70.5186441,22.0597826 C70.5186441,33.9565217 60.8313559,43.5815217 48.8576271,43.5815217 C43.8033898,43.5815217 39.170339,41.8478261 35.5,38.9782609 C40.5542373,35.0326087 43.7432203,28.9347826 43.7432203,22.0597826 C43.7432203,15.1847826 40.4940678,9.08695652 35.5,5.14130435 C39.170339,2.27173913 43.8033898,0.538043478 48.8576271,0.538043478 C60.8313559,0.538043478 70.5186441,10.2228261 70.5186441,22.0597826 Z" id="orange" fill="#F79E1B"></path>
            </g>
        </g>
    </g>
</svg>