<svg xmlns="http://www.w3.org/2000/svg" width="57" height="39" viewBox="0 0 57 39">
    <path fill="#FFF" fill-rule="nonzero" d="M56.891 27.693a2.16 2.16 0 0 1-.534 2.208 3.456 3.456 0 0 1-2.348.905c-.907 0-1.708-.32-2.348-.905-.587-.532-.8-1.41-.56-2.182l.827-5.507a2.059 2.059 0 0 1 1.387-1.676v-5.002l-9.072 4.79v9.79c0 4.975-6.912 8.886-15.744 8.886-8.833 0-15.744-3.911-15.744-8.886v-4.47L.987 19.498A1.84 1.84 0 0 1 0 17.875c0-.665.374-1.303.987-1.622L30.447.688c1.761-.904 3.842-.93 5.604 0l19.72 10.297c.613.319.987.957.987 1.623a1.84 1.84 0 0 1-.988 1.623l-1.094.585v5.693c.72.24 1.254.878 1.388 1.676l.827 5.508zm-1.468-15.085c0-.08-.026-.32-.266-.48l-3.23-1.675-32.5 17.16 1.92 1.011a4.659 4.659 0 0 0 4.35 0l29.46-15.564a.494.494 0 0 0 .266-.452zM14.73 25.192l3.255 1.703 32.502-17.16L47.23 8.03 14.73 25.191zm-.16-4.975a4.72 4.72 0 0 1-2.162.532c-.72 0-1.467-.186-2.135-.532l-.4-.213a2.047 2.047 0 0 1-1.12-1.836c0-.771.426-1.463 1.12-1.836l2.268-1.197a4.706 4.706 0 0 1 4.297 0l.4.213a2.047 2.047 0 0 1 1.12 1.836c0 .771-.426 1.463-1.12 1.835l-2.268 1.198zm-4.083-1.384l.4.213a3.24 3.24 0 0 0 3.042 0l2.268-1.197a.751.751 0 0 0 0-1.33l-.4-.213a3.379 3.379 0 0 0-1.52-.373c-.508 0-1.042.107-1.522.373l-2.268 1.197a.751.751 0 0 0 0 1.33zm-9.153-.958c0 .107.027.32.267.453l11.688 6.119L45.79 7.287 35.41 1.859a4.72 4.72 0 0 0-2.161-.532c-.747 0-1.495.16-2.188.532L1.6 17.423a.494.494 0 0 0-.267.452zm41.601 12.239v-9.1l-16.598 8.78a6.143 6.143 0 0 1-2.801.692c-.961 0-1.922-.24-2.802-.691l-2.909-1.517a.425.425 0 0 1-.267-.133l-3.442-1.782v3.75c0 4.098 6.591 7.557 14.41 7.557 7.818 0 14.41-3.459 14.41-7.556zm12.488-1.197c.24-.213.294-.532.16-.825l-.026-.133-.827-5.56a.748.748 0 0 0-.748-.64.748.748 0 0 0-.747.64l-.854 5.64-.026.053c-.107.293-.027.638.186.825.4.345.881.532 1.441.532s1.041-.16 1.441-.532z"/>
</svg>
