<?xml version="1.0" encoding="utf-8"?>
<!-- Generator: Adobe Illustrator 22.0.1, SVG Export Plug-In . SVG Version: 6.00 Build 0)  -->
<svg version="1.1" id="Layer_1" xmlns="http://www.w3.org/2000/svg" xmlns:xlink="http://www.w3.org/1999/xlink" x="0px" y="0px"
	 viewBox="0 0 400 400" style="enable-background:new 0 0 400 400;" xml:space="preserve">
<style type="text/css">
	.st1{fill:#FFFFFF;}
</style>
<g>
	<path class="st1" d="M227.1,131.5c-5.9-3.1-12.8-3.1-18.7,0L98.1,190c-3.2,1.7-3.1,6.2,0,7.9l45,23.6L270.1,154L227.1,131.5z
		 M155.1,196l-8.5,4.5c-4.3,2.3-9.4,2.3-13.7,0l-1.5-0.8c-3.8-2-3.8-7.4,0-9.4l8.5-4.5c4.3-2.3,9.4-2.3,13.7,0l1.5,0.8
		C158.9,188.6,158.9,194,155.1,196z"/>
	<path class="st1" d="M304,231.4l-3.1-20.9c-0.3-1.7-1.3-3.1-2.8-3.9v-27l2.9-1.6c3.2-1.7,3.1-6.2,0-7.9l-13.3-7l-127.1,67.4l11.4,6
		c5.8,3.1,12.8,3.1,18.7,0l102.4-54.3v24.3c-1.4,0.8-2.5,2.2-2.8,3.9l-3.1,20.9c-0.7,2-0.2,4.3,1.4,5.8c1.5,1.4,3.8,2.7,7.1,2.7
		s5.6-1.3,7.1-2.7C304.2,235.8,304.7,233.5,304,231.4z"/>
	<path class="st1" d="M172,244.6l-28.5-14.9v10.3c0,17.1,25.3,30.9,56.5,30.9s56.5-13.8,56.5-30.9v-30.3l-65.9,34.9
		C184.8,247.6,177.8,247.7,172,244.6z"/>
</g>
</svg>
