<?xml version="1.0" encoding="utf-8"?>
<!-- Generator: Adobe Illustrator 22.0.1, SVG Export Plug-In . SVG Version: 6.00 Build 0)  -->
<svg version="1.1" id="Layer_1" xmlns="http://www.w3.org/2000/svg" xmlns:xlink="http://www.w3.org/1999/xlink" x="0px" y="0px"
	 viewBox="0 0 400 400" style="enable-background:new 0 0 400 400;" xml:space="preserve">
<style type="text/css">
	.st0{fill:#00D3AF;}
	.st1{fill:#FFFFFF;}
	.st2{fill:url(#SVGID_1_);}
	.st3{fill:url(#SVGID_2_);}
	.st4{fill:url(#SVGID_3_);}
	.st5{fill:url(#SVGID_4_);}
	.st6{fill:url(#SVGID_5_);}
	.st7{fill:url(#SVGID_6_);}
	.st8{fill:url(#SVGID_7_);}
</style>
<g>
	<linearGradient id="SVGID_1_" gradientUnits="userSpaceOnUse" x1="157.8927" y1="200.3955" x2="285.3864" y2="263.3923">
		<stop  offset="0" style="stop-color:#3A72FA"/>
		<stop  offset="0.4911" style="stop-color:#49C8FA"/>
		<stop  offset="1" style="stop-color:#47ECC7"/>
	</linearGradient>
	<path class="st2" d="M147.8,202.7l8.5-4.5c2.6-1.4,4.2-4,4.2-6.9c0-2.9-1.6-5.6-4.2-6.9l-1.5-0.8c-5-2.6-11-2.6-16.1,0l-8.5,4.5
		c-2.6,1.4-4.2,4-4.2,6.9c0,2.9,1.6,5.6,4.2,6.9l1.5,0.8c2.5,1.3,5.3,2,8,2C142.5,204.7,145.3,204,147.8,202.7z M132.5,197.5
		c-0.9-0.5-1.5-1.4-1.5-2.5c0-1.1,0.6-2,1.5-2.5l8.5-4.5c1.8-1,3.8-1.4,5.7-1.4c2,0,3.9,0.5,5.7,1.4l1.5,0.8
		c0.9,0.5,1.5,1.4,1.5,2.5c0,1.1-0.6,2-1.5,2.5l-8.5,4.5c-3.6,1.9-7.8,1.9-11.4,0L132.5,197.5z"/>
	<linearGradient id="SVGID_2_" gradientUnits="userSpaceOnUse" x1="166.3665" y1="183.2462" x2="293.8601" y2="246.2431">
		<stop  offset="0" style="stop-color:#3A72FA"/>
		<stop  offset="0.4911" style="stop-color:#49C8FA"/>
		<stop  offset="1" style="stop-color:#47ECC7"/>
	</linearGradient>
	<path class="st3" d="M306.4,230.8l-3.1-20.7c-0.5-3-2.5-5.4-5.2-6.3v-21.4l4.1-2.2c2.3-1.2,3.7-3.6,3.7-6.1s-1.4-4.9-3.7-6.1
		l-73.9-38.7c-6.6-3.5-14.4-3.4-21,0L96.9,187.8c-2.3,1.2-3.7,3.6-3.7,6.1s1.4,4.9,3.7,6.1l44.1,23.1v16.8c0,18.7,25.9,33.4,59,33.4
		s59-14.7,59-33.4v-36.8l34-18v18.8c-2.7,0.9-4.8,3.3-5.2,6.3l-3.1,20.7c-0.9,2.9-0.1,6.2,2.1,8.2c2.4,2.2,5.4,3.4,8.8,3.4
		c3.3,0,6.4-1.2,8.8-3.4C306.5,237,307.4,233.8,306.4,230.8z M300.9,174.1c0,0.4-0.1,1.2-1,1.7l-110.4,58.5
		c-5.1,2.7-11.2,2.7-16.3,0l-7.2-3.8l121.8-64.5l12.1,6.3C300.8,172.9,300.9,173.8,300.9,174.1z M148.4,221.4l121.8-64.5l12.2,6.4
		l-121.8,64.5L148.4,221.4z M98.2,193.9c0-0.4,0.1-1.2,1-1.7l110.4-58.5c2.6-1.4,5.4-2,8.2-2c2.8,0,5.6,0.7,8.1,2l38.9,20.4
		L143,218.6l-43.8-23C98.3,195.1,98.2,194.3,98.2,193.9z M254.1,239.9c0,15.4-24.7,28.4-54,28.4c-29.3,0-54-13-54-28.4v-14.1
		l12.9,6.7c0.3,0.3,0.7,0.5,1,0.5l10.9,5.7c3.3,1.7,6.9,2.6,10.5,2.6c3.6,0,7.2-0.9,10.5-2.6l62.2-33V239.9z M300.9,235.4
		c-1.5,1.4-3.3,2-5.4,2c-2.1,0-3.9-0.7-5.4-2c-0.8-0.7-1.1-2-0.7-3.1l0.1-0.2l3.2-21.2c0.2-1.4,1.4-2.4,2.8-2.4s2.6,1,2.8,2.4
		l3.1,20.9l0.1,0.5C302,233.4,301.8,234.6,300.9,235.4z"/>
</g>
</svg>
