<svg xmlns="http://www.w3.org/2000/svg" xmlns:xlink="http://www.w3.org/1999/xlink" width="48" height="32" viewBox="0 0 48 32">
    <defs>
        <path id="a" d="M725.684 19.517l9.73 5.1-28.72 15.22-10.157-5.323a1.003 1.003 0 0 1-.004-1.774l24.932-13.213a4.523 4.523 0 0 1 4.219-.01zM709.428 34.09a1.2 1.2 0 0 0-.005-2.123l-.345-.18a3.329 3.329 0 0 0-3.105.006l-1.925 1.02a1.2 1.2 0 0 0 .005 2.124l.345.18a3.33 3.33 0 0 0 3.105-.006l1.925-1.02zm33.63 8.013c.164.46.045.982-.306 1.304a2.3 2.3 0 0 1-1.596.608 2.3 2.3 0 0 1-1.596-.608 1.22 1.22 0 0 1-.305-1.304l.71-4.728a1.2 1.2 0 0 1 .626-.88v-5.5l-23.136 12.263a4.523 4.523 0 0 1-4.219.01l-2.573-1.35 28.72-15.22 3 1.573c.715.374.717 1.396.004 1.773l-.666.353v6.098a1.2 1.2 0 0 1 .626.88l.71 4.728zm-29.822 2.972c1.322.692 2.9.689 4.219-.01l14.886-7.89v6.85c0 3.852-5.716 6.975-12.767 6.975-7.051 0-12.767-3.123-12.767-6.975v-2.32l6.43 3.37z"/>
    </defs>
    <use fill="#FD5C63" fill-rule="evenodd" transform="translate(-696 -19)" xlink:href="#a"/>
</svg>
