<svg xmlns="http://www.w3.org/2000/svg" width="20" height="16" viewBox="0 0 20 16">
    <path fill="#FFF" fill-rule="evenodd" d="M20 1.9a8.741 8.741 0 0 1-2.056 2.087c.013.176.013.35.013.526C17.957 9.85 13.832 16 6.294 16c-2.322 0-4.48-.663-6.294-1.813.33.038.647.05.99.05 1.916 0 3.68-.637 5.089-1.724-1.802-.038-3.313-1.2-3.833-2.8.254.037.508.062.774.062.368 0 .736-.05 1.079-.137-1.878-.375-3.287-2-3.287-3.963v-.05c.546.3 1.18.487 1.853.513A4.02 4.02 0 0 1 .838 2.775c0-.75.203-1.438.558-2.038a11.71 11.71 0 0 0 8.452 4.225 4.49 4.49 0 0 1-.102-.924c0-2.226 1.828-4.038 4.1-4.038 1.18 0 2.245.487 2.994 1.275A8.145 8.145 0 0 0 19.442.3a4.038 4.038 0 0 1-1.802 2.225A8.317 8.317 0 0 0 20 1.9z"/>
</svg>
