<?xml version="1.0" encoding="UTF-8"?>
<svg width="20px" height="20px" viewBox="0 0 20 20" version="1.1" xmlns="http://www.w3.org/2000/svg" xmlns:xlink="http://www.w3.org/1999/xlink">
    <!-- Generator: Sketch 52.6 (67491) - http://www.bohemiancoding.com/sketch -->
    <title>move</title>
    <desc>Created with Sketch.</desc>
    <defs>
        <path d="M2.8,13.0100505 L6.50502525,9.30502525 C6.77839226,9.03165825 7.22160774,9.03165825 7.49497475,9.30502525 C7.76834175,9.57839226 7.76834175,10.0216077 7.49497475,10.2949747 L3.78994949,14 L6.3,14 C6.68659932,14 7,14.3134007 7,14.7 C7,15.0865993 6.68659932,15.4 6.3,15.4 L2.1,15.4 C1.71340068,15.4 1.4,15.0865993 1.4,14.7 L1.4,10.5 C1.4,10.1134007 1.71340068,9.8 2.1,9.8 C2.48659932,9.8 2.8,10.1134007 2.8,10.5 L2.8,13.0100505 Z M13.0100505,2.8 L10.5,2.8 C10.1134007,2.8 9.8,2.48659932 9.8,2.1 C9.8,1.71340068 10.1134007,1.4 10.5,1.4 L14.7,1.4 C15.0865993,1.4 15.4,1.71340068 15.4,2.1 L15.4,6.3 C15.4,6.68659932 15.0865993,7 14.7,7 C14.3134007,7 14,6.68659932 14,6.3 L14,3.78994949 L10.2949747,7.49497475 C10.0216077,7.76834175 9.57839226,7.76834175 9.30502525,7.49497475 C9.03165825,7.22160774 9.03165825,6.77839226 9.30502525,6.50502525 L13.0100505,2.8 Z" id="path-1"></path>
        <path d="M2.8,13.0100505 L6.50502525,9.30502525 C6.77839226,9.03165825 7.22160774,9.03165825 7.49497475,9.30502525 C7.76834175,9.57839226 7.76834175,10.0216077 7.49497475,10.2949747 L3.78994949,14 L6.3,14 C6.68659932,14 7,14.3134007 7,14.7 C7,15.0865993 6.68659932,15.4 6.3,15.4 L2.1,15.4 C1.71340068,15.4 1.4,15.0865993 1.4,14.7 L1.4,10.5 C1.4,10.1134007 1.71340068,9.8 2.1,9.8 C2.48659932,9.8 2.8,10.1134007 2.8,10.5 L2.8,13.0100505 Z M13.0100505,2.8 L10.5,2.8 C10.1134007,2.8 9.8,2.48659932 9.8,2.1 C9.8,1.71340068 10.1134007,1.4 10.5,1.4 L14.7,1.4 C15.0865993,1.4 15.4,1.71340068 15.4,2.1 L15.4,6.3 C15.4,6.68659932 15.0865993,7 14.7,7 C14.3134007,7 14,6.68659932 14,6.3 L14,3.78994949 L10.2949747,7.49497475 C10.0216077,7.76834175 9.57839226,7.76834175 9.30502525,7.49497475 C9.03165825,7.22160774 9.03165825,6.77839226 9.30502525,6.50502525 L13.0100505,2.8 Z" id="path-3"></path>
    </defs>
    <g id="1-Desktop" stroke="none" stroke-width="1" fill="none" fill-rule="evenodd">
        <g id="CA_Dashboard_Parents_Newcard_1440_3.2" transform="translate(-710.000000, -329.000000)">
            <g id="move" transform="translate(708.000000, 327.000000)">
                <g id="maximize-2" transform="translate(12.020815, 12.020815) rotate(-45.000000) translate(-12.020815, -12.020815) translate(3.520815, 3.520815)">
                    <mask id="mask-2" fill="white">
                        <use xlink:href="#path-1"></use>
                    </mask>
                    <use id="Combined-Shape" fill="#000000" fill-rule="nonzero" xlink:href="#path-1"></use>
                    <g id="COLOR/-black" mask="url(#mask-2)" fill="#FFFFFF" fill-rule="evenodd">
                        <rect id="Rectangle" x="0" y="0" width="17.3090909" height="17.3090909"></rect>
                    </g>
                </g>
                <g id="maximize-2" transform="translate(12.020815, 12.020815) rotate(-315.000000) translate(-12.020815, -12.020815) translate(3.520815, 3.520815)">
                    <mask id="mask-4" fill="white">
                        <use xlink:href="#path-3"></use>
                    </mask>
                    <use id="Combined-Shape" fill="#000000" fill-rule="nonzero" xlink:href="#path-3"></use>
                    <g id="COLOR/-black" mask="url(#mask-4)" fill="#FFFFFF" fill-rule="evenodd">
                        <rect id="Rectangle" x="0" y="0" width="17.3090909" height="17.3090909"></rect>
                    </g>
                </g>
            </g>
        </g>
    </g>
</svg>