<?xml version="1.0" encoding="UTF-8"?>
<svg width="18px" height="18px" viewBox="0 0 18 18" version="1.1" xmlns="http://www.w3.org/2000/svg" xmlns:xlink="http://www.w3.org/1999/xlink">
    <!-- Generator: Sketch 52.6 (67491) - http://www.bohemiancoding.com/sketch -->
    <title>Group 2</title>
    <desc>Created with Sketch.</desc>
    <defs>
        <path d="M2.30588235,10.7141592 L5.35707962,7.66296197 C5.58220539,7.43783621 5.94720638,7.43783621 6.17233214,7.66296197 C6.39745791,7.88808774 6.39745791,8.25308873 6.17233214,8.4782145 L3.12113488,11.5294118 L5.18823529,11.5294118 C5.50661121,11.5294118 5.76470588,11.7875064 5.76470588,12.1058824 C5.76470588,12.4242583 5.50661121,12.6823529 5.18823529,12.6823529 L1.72941176,12.6823529 C1.41103585,12.6823529 1.15294118,12.4242583 1.15294118,12.1058824 L1.15294118,8.64705882 C1.15294118,8.32868291 1.41103585,8.07058824 1.72941176,8.07058824 C2.04778768,8.07058824 2.30588235,8.32868291 2.30588235,8.64705882 L2.30588235,10.7141592 Z M10.7141592,2.30588235 L8.64705882,2.30588235 C8.32868291,2.30588235 8.07058824,2.04778768 8.07058824,1.72941176 C8.07058824,1.41103585 8.32868291,1.15294118 8.64705882,1.15294118 L12.1058824,1.15294118 C12.4242583,1.15294118 12.6823529,1.41103585 12.6823529,1.72941176 L12.6823529,5.18823529 C12.6823529,5.50661121 12.4242583,5.76470588 12.1058824,5.76470588 C11.7875064,5.76470588 11.5294118,5.50661121 11.5294118,5.18823529 L11.5294118,3.12113488 L8.4782145,6.17233214 C8.25308873,6.39745791 7.88808774,6.39745791 7.66296197,6.17233214 C7.43783621,5.94720638 7.43783621,5.58220539 7.66296197,5.35707962 L10.7141592,2.30588235 Z" id="path-1"></path>
    </defs>
    <g id="1-Desktop" stroke="none" stroke-width="1" fill="none" fill-rule="evenodd">
        <g id="CA_Dashboard_Parents_Newcard_1440_3.2" transform="translate(-765.000000, -275.000000)">
            <g id="Group-2" transform="translate(765.000000, 275.000000)">
                <g id="maximize-2" transform="translate(2.000000, 2.000000)">
                    <mask id="mask-2" fill="white">
                        <use xlink:href="#path-1"></use>
                    </mask>
                    <use id="Combined-Shape" fill="#000000" fill-rule="nonzero" xlink:href="#path-1"></use>
                    <g id="COLOR/-black" mask="url(#mask-2)" fill="#FFFFFF" fill-rule="evenodd">
                        <rect id="Rectangle" x="0" y="0" width="14.2545455" height="14.2545455"></rect>
                    </g>
                </g>
                <rect id="Rectangle" stroke="#FFFFFF" x="0.5" y="0.5" width="17" height="17" rx="2"></rect>
            </g>
        </g>
    </g>
</svg>