<svg xmlns="http://www.w3.org/2000/svg" xmlns:xlink="http://www.w3.org/1999/xlink" width="349" height="246" viewBox="0 0 349 246">
    <style>
        text { font-family: 'Roboto', sans-serif }
    </style>
    <defs>
        <filter id="a" width="125.4%" height="134.9%" x="-12.7%" y="-17.5%" filterUnits="objectBoundingBox">
            <feGaussianBlur in="SourceGraphic" stdDeviation="12.461"/>
        </filter>
        <rect id="b" width="320" height="202" x="14" y="6" rx="12"/>
    </defs>
    <g fill="none" fill-rule="evenodd">
        <rect width="294" height="214" x="27" y="12" fill="#0A1214" filter="url(#a)" opacity=".3" rx="25"/>
        <use fill="#FD5C63" xlink:href="#b"/>
        <text fill="#FFF" font-size="15" letter-spacing="2">
            <tspan x="47" y="174">MARC BARNES</tspan>
        </text>
        <path fill="#FFF" fill-rule="nonzero" d="M84.916 57.302c.206.614.02 1.269-.412 1.699a2.673 2.673 0 0 1-1.813.696c-.7 0-1.318-.246-1.812-.696-.454-.41-.618-1.085-.433-1.678l.639-4.237a1.585 1.585 0 0 1 1.07-1.29V47.95l-7.003 3.684v7.531C75.152 62.992 69.817 66 63 66c-6.818 0-12.153-3.008-12.153-6.836v-3.438L41.762 51A1.415 1.415 0 0 1 41 49.75c0-.511.288-1.002.762-1.248l22.74-11.972c1.36-.696 2.967-.717 4.326 0l15.223 7.92c.473.245.762.737.762 1.248 0 .512-.289 1.003-.762 1.249l-.845.45v4.38c.556.184.968.675 1.071 1.289l.639 4.236zm-1.133-11.604a.449.449 0 0 0-.206-.368l-2.492-1.29-25.09 13.2 1.484.778a3.607 3.607 0 0 0 3.357 0l22.741-11.972a.38.38 0 0 0 .206-.348zm-31.413 9.68l2.513 1.31 25.09-13.2-2.514-1.31-25.089 13.2zm-.123-3.827a3.653 3.653 0 0 1-1.669.41 3.634 3.634 0 0 1-1.648-.41l-.309-.163a1.574 1.574 0 0 1-.865-1.413c0-.593.33-1.125.865-1.412l1.751-.92a3.644 3.644 0 0 1 3.317 0l.309.163c.535.266.865.819.865 1.412 0 .594-.33 1.126-.865 1.412l-1.751.921zm-3.152-1.064l.31.164a2.51 2.51 0 0 0 2.347 0l1.751-.921a.578.578 0 0 0 0-1.023l-.309-.164a2.615 2.615 0 0 0-1.174-.287c-.391 0-.803.082-1.174.287l-1.75.92a.578.578 0 0 0 0 1.024zm-7.065-.737c0 .082.02.246.206.348l9.022 4.707 25.089-13.2-8.013-4.175a3.653 3.653 0 0 0-1.668-.41c-.577 0-1.154.124-1.69.41l-22.74 11.972a.38.38 0 0 0-.206.348zm32.113 9.414v-6.999L61.33 58.92a4.756 4.756 0 0 1-2.163.532 4.756 4.756 0 0 1-2.163-.532l-2.245-1.167a.329.329 0 0 1-.206-.102l-2.657-1.371v2.885c0 3.152 5.087 5.813 11.123 5.813 6.035 0 11.123-2.66 11.123-5.813zm9.64-.92a.528.528 0 0 0 .124-.635l-.021-.102-.639-4.278a.576.576 0 0 0-.576-.49.576.576 0 0 0-.577.49l-.66 4.34-.02.04c-.082.225-.02.491.144.635.31.266.68.409 1.113.409.432 0 .803-.123 1.112-.41z"/>
        <path fill="#FF5E00" d="M280.5 152.942c2.807-2.458 6.448-3.942 10.426-3.942 8.878 0 16.074 7.387 16.074 16.5s-7.196 16.5-16.074 16.5c-3.978 0-7.62-1.484-10.426-3.942-2.807 2.458-6.448 3.942-10.426 3.942-8.878 0-16.074-7.387-16.074-16.5s7.196-16.5 16.074-16.5c3.978 0 7.62 1.484 10.426 3.942z"/>
        <path fill="#ED0006" d="M280 152.942c-3.39 3.026-5.541 7.53-5.541 12.558 0 5.029 2.15 9.532 5.541 12.558-2.754 2.458-6.326 3.942-10.23 3.942-8.71 0-15.77-7.387-15.77-16.5s7.06-16.5 15.77-16.5c3.904 0 7.476 1.484 10.23 3.942z"/>
        <path fill="#F9A000" d="M281 178.058c3.39-3.026 5.541-7.53 5.541-12.558 0-5.029-2.15-9.532-5.541-12.558 2.754-2.458 6.326-3.942 10.23-3.942 8.71 0 15.77 7.387 15.77 16.5s-7.06 16.5-15.77 16.5c-3.904 0-7.476-1.484-10.23-3.942z"/>
    </g>
</svg>
