<svg xmlns="http://www.w3.org/2000/svg" width="283" height="209" viewBox="0 0 283 209">
    <g fill="none" fill-rule="evenodd" transform="translate(3 1)">
        <path stroke="#FD5C63" stroke-linecap="square" stroke-width="4" d="M91 205l56-30"/>
        <path stroke="#FD5C63" stroke-linecap="square" d="M134 21l29-16M0 153l41-22"/>
        <path stroke="#FD5C63" stroke-linecap="square" stroke-width="4" d="M0 58l39-21M239 87l38-20"/>
        <path stroke="#FD5C63" stroke-linecap="square" d="M210 180l50-28"/>
        <rect width="144" height="100" x="61" y="42" stroke="#5D6B81" stroke-width="3" rx="8"/>
        <path stroke="#FD5C63" d="M73 135.99V63a8 8 0 0 1 8-8h117.992M209 55a8 8 0 0 1 8 8v84a8 8 0 0 1-8 8H81a8 8 0 0 1-8-8"/>
        <path stroke="#FD5C63" stroke-linecap="square" d="M186 20l39-20"/>
    </g>
</svg>
