<svg id="Layer_1" data-name="Layer 1" xmlns="http://www.w3.org/2000/svg" viewBox="500 100 920 680"><defs><style>.cls-1,.cls-16,.cls-2{fill:none;}.cls-14,.cls-16,.cls-2{stroke:#fff;stroke-miterlimit:10;}.cls-2{stroke-width:2px;}.cls-14,.cls-3{fill:#fff;}.cls-4{fill:#f8a0dd;}.cls-5{fill:#fad93a;}.cls-6{fill:#016fec;}.cls-7{fill:#f6f6f6;}.cls-8{fill:#02b46b;}.cls-9{fill:#f44d1a;}.cls-10{fill:#100002;}.cls-11{fill:#fca4e1;}.cls-12{fill:#17b06c;}.cls-13{fill:#ef4d1a;}.cls-14,.cls-16{stroke-linecap:round;}.cls-14{stroke-width:1.87px;}.cls-15{fill:#fafafa;}.cls-16{stroke-width:5.53px;}</style></defs><title>CREDIT_ACADEMY_DESIGNS_WEB_VECTOR_02</title><rect class="cls-1" x="-1.38" width="1920" height="1080"/><path class="cls-2" d="M958.87,311a92.17,92.17,0,0,1,92,86.56h199.27c0-160.86-130.4-291.26-291.26-291.26S667.6,236.67,667.6,397.53H866.88A92.16,92.16,0,0,1,958.87,311Z"/><line class="cls-2" x1="723.36" y1="225.42" x2="887.32" y2="345.59"/><line class="cls-2" x1="1193.86" y1="225.42" x2="1029.9" y2="345.59"/><line class="cls-2" x1="978.87" y1="313" x2="1042.01" y2="119.51"/><line class="cls-2" x1="933.15" y1="313" x2="870.01" y2="119.51"/><path class="cls-2" d="M973.87,406.57l-2.6-20.73-14.9-133.41a.89.89,0,0,0-1.77,0l-16,133.42L936,406.57a19.27,19.27,0,0,0-.13,2.16,19.09,19.09,0,0,0,38.14,0A17.16,17.16,0,0,0,973.87,406.57Z"/><circle class="cls-2" cx="954.93" cy="407.21" r="9.67"/><path class="cls-3" d="M717.86,418.81h8.8c5.3,0,8.79,2.82,8.79,7.45v.07c0,5.07-4.23,7.69-9.23,7.69h-5.71v8.29h-2.65Zm8.46,12.79c3.9,0,6.45-2.08,6.45-5.17v-.07c0-3.35-2.52-5.1-6.31-5.1h-6V431.6Z"/><path class="cls-3" d="M739.24,430.63v-.07a12,12,0,1,1,24-.07v.07a12,12,0,1,1-24,.07Zm21.22,0v-.07c0-5.34-3.89-9.7-9.26-9.7s-9.2,4.29-9.2,9.63v.07c0,5.34,3.89,9.7,9.26,9.7S760.46,436,760.46,430.63Z"/><path class="cls-3" d="M767.78,430.63v-.07a12,12,0,1,1,24-.07v.07a12,12,0,1,1-24,.07Zm21.21,0v-.07c0-5.34-3.89-9.7-9.26-9.7s-9.2,4.29-9.2,9.63v.07c0,5.34,3.89,9.7,9.27,9.7S789,436,789,430.63Z"/><path class="cls-3" d="M797.35,418.81h10.11a9.27,9.27,0,0,1,6.68,2.35,6.5,6.5,0,0,1,1.81,4.63v.07c0,3.89-2.69,6.18-6.38,6.85l7.22,9.6h-3.26l-6.81-9.13H800v9.13h-2.65Zm9.87,12c3.53,0,6-1.81,6-4.83v-.07c0-2.88-2.21-4.63-6-4.63H800v9.53Z"/><path class="cls-3" d="M1103.93,430.63v-.07c0-6.45,4.73-12.15,11.78-12.15a12.39,12.39,0,0,1,8.77,3.12l-1.72,2a10,10,0,0,0-7.15-2.68c-5.2,0-8.93,4.4-8.93,9.63v.07c0,5.61,3.6,9.77,9.3,9.77a11,11,0,0,0,6.78-2.35v-5.84h-7.15v-2.39h9.71v9.37a14.26,14.26,0,0,1-9.44,3.59C1108.5,442.71,1103.93,437.34,1103.93,430.63Z"/><path class="cls-3" d="M1130.25,430.63v-.07a12,12,0,1,1,24-.07v.07a12,12,0,1,1-24,.07Zm21.22,0v-.07c0-5.34-3.9-9.7-9.27-9.7s-9.2,4.29-9.2,9.63v.07c0,5.34,3.9,9.7,9.27,9.7S1151.47,436,1151.47,430.63Z"/><path class="cls-3" d="M1158.78,430.63v-.07a12,12,0,1,1,24-.07v.07a12,12,0,1,1-24,.07Zm21.22,0v-.07c0-5.34-3.9-9.7-9.27-9.7s-9.2,4.29-9.2,9.63v.07c0,5.34,3.9,9.7,9.27,9.7S1180,436,1180,430.63Z"/><path class="cls-3" d="M1188.36,418.81h8.15c7.39,0,12.49,5.07,12.49,11.68v.07c0,6.61-5.1,11.75-12.49,11.75h-8.15Zm2.65,2.45v18.6h5.5c5.94,0,9.74-4,9.74-9.23v-.07c0-5.2-3.8-9.3-9.74-9.3Z"/><path class="cls-4" d="M1107.37,336.06a5.44,5.44,0,1,1,2.05-10.69l5.61,1.08-.59,3.1-5.61-1.08A2.29,2.29,0,1,0,1108,333Z"/><path class="cls-4" d="M1184.39,350.85l.59-3.1a2.29,2.29,0,1,0,.86-4.49l-6.22-1.2.59-3.09,6.23,1.19a5.44,5.44,0,0,1-2,10.69Z"/><path class="cls-5" d="M1204.6,361.58a9.89,9.89,0,0,1-7.83-11.56.22.22,0,0,0-.43-.08,9.87,9.87,0,0,1-11.56,7.83.22.22,0,0,0-.25.17.22.22,0,0,0,.17.26,9.89,9.89,0,0,1,7.84,11.56.2.2,0,0,0,.17.25.21.21,0,0,0,.25-.17,9.9,9.9,0,0,1,11.56-7.84.22.22,0,0,0,.26-.17A.22.22,0,0,0,1204.6,361.58Z"/><path class="cls-6" d="M1159.81,291.26l-2.17,11.3a.3.3,0,0,0,.37.35l15.6-3.59a.31.31,0,0,0,.09-.57l-13.43-7.7A.32.32,0,0,0,1159.81,291.26Z"/><path class="cls-7" d="M1154.78,307.62a1.87,1.87,0,0,1-1.49-2.19l2.93-15.25a1.87,1.87,0,1,1,3.68.7L1157,306.14A1.88,1.88,0,0,1,1154.78,307.62Z"/><circle class="cls-8" cx="1146.63" cy="340.79" r="35.98"/><rect class="cls-4" x="1144.6" y="302.7" width="3.16" height="78.42" transform="translate(594.23 1403.03) rotate(-79.13)"/><path class="cls-3" d="M1124.87,330.13l1.74-9a1.57,1.57,0,0,1,2.05-1.39l2.44.47c4.89.94,5.92,3,5.3,6.25s-2.32,4.66-7.16,3.73h0l-.15.78a1.58,1.58,0,0,1-2.06,1.39l-.74-.15A1.57,1.57,0,0,1,1124.87,330.13Zm5.75-3.34c1,.2,1.39-.52,1.53-1.24s.06-1.47-1-1.67l-.74-.14-.56,2.91Z"/><path class="cls-3" d="M1146.7,334c.37,1.45-.13,2.08-1.68,1.79l-.78-.15a1.92,1.92,0,0,1-1.69-1.76l-.38-2.38-.25,0-.69-.13-.36,1.87a1.58,1.58,0,0,1-2,1.4l-.76-.15a1.57,1.57,0,0,1-1.39-2.05l1.73-9a1.58,1.58,0,0,1,2.06-1.39l3.25.63c4.37.84,5,2.83,4.51,5.36a4.32,4.32,0,0,1-2.26,3.16Zm-4.25-5.37c1,.2,1.36-.41,1.49-1.09a1.13,1.13,0,0,0-1-1.51l-.69-.13-.5,2.6Z"/><path class="cls-3" d="M1158.73,336.31c.37,1.44-.14,2.08-1.69,1.79l-.77-.15a1.94,1.94,0,0,1-1.7-1.76l-.37-2.38-.25,0-.69-.13-.36,1.87a1.59,1.59,0,0,1-2.06,1.4l-.75-.15a1.57,1.57,0,0,1-1.39-2.05l1.73-9a1.57,1.57,0,0,1,2-1.39l3.26.63c4.37.84,5,2.83,4.5,5.36a4.32,4.32,0,0,1-2.26,3.16Zm-4.26-5.37c1,.2,1.37-.41,1.5-1.09a1.13,1.13,0,0,0-1-1.51l-.69-.13-.5,2.6Z"/><path class="cls-3" d="M1170.75,338.62c.37,1.44-.13,2.08-1.68,1.79l-.78-.15a1.93,1.93,0,0,1-1.69-1.76l-.38-2.38-.25,0-.69-.13-.36,1.87a1.57,1.57,0,0,1-2.05,1.39l-.76-.14a1.57,1.57,0,0,1-1.39-2.05l1.73-9a1.58,1.58,0,0,1,2.06-1.39l3.25.63c4.37.84,5,2.83,4.51,5.36a4.32,4.32,0,0,1-2.26,3.16Zm-4.25-5.37c1,.2,1.36-.41,1.49-1.09a1.13,1.13,0,0,0-1-1.51l-.69-.13-.5,2.6Z"/><path class="cls-3" d="M1123.56,354.72l1.74-9a1.57,1.57,0,0,1,2-1.39l4.53.87a1.58,1.58,0,0,1,1.39,2.05l0,.19a1.58,1.58,0,0,1-2,1.4l-2.08-.4-.32,1.63,1.76.34a1.54,1.54,0,0,1,1.41,2h0a1.54,1.54,0,0,1-2,1.32l-1.75-.33-.42,2.17a1.57,1.57,0,0,1-2,1.39l-.73-.14A1.58,1.58,0,0,1,1123.56,354.72Z"/><path class="cls-3" d="M1132.76,356.48l1.74-9a1.57,1.57,0,0,1,2-1.39l5,1a1.58,1.58,0,0,1,1.4,2l0,.22a1.58,1.58,0,0,1-2,1.4l-2.6-.5-.21,1.1,2.29.44c1.12.21,1.62.85,1.44,1.78h0c-.18.95-.88,1.35-2,1.14l-2.29-.44-.22,1.12,2.6.49a1.58,1.58,0,0,1,1.39,2.06l0,.2a1.58,1.58,0,0,1-2,1.4l-5-1A1.58,1.58,0,0,1,1132.76,356.48Z"/><path class="cls-3" d="M1143.24,353.85c.74-3.84,3.68-5.87,7.35-5.16a5.68,5.68,0,0,1,4.74,4c.31,1.26-.18,1.94-1.33,1.89l-.69,0c-1.16,0-1.6-.24-1.94-.89a2,2,0,0,0-1.51-1.26c-1.08-.21-2,.71-2.29,2.29s.22,2.76,1.28,3a1.91,1.91,0,0,0,1.81-.59c.52-.47,1.17-.5,2.19-.15l.65.24c1.21.42,1.25,1.31.14,2.63-1.19,1.47-3.24,2-5.48,1.55C1144.43,360.61,1142.49,357.76,1143.24,353.85Z"/><path class="cls-3" d="M1157.12,361.16l1.35-7.08-.65-.12a1.58,1.58,0,0,1-1.39-2.06l0-.22a1.57,1.57,0,0,1,2-1.39l5.46,1a1.58,1.58,0,0,1,1.4,2.05l-.05.22a1.58,1.58,0,0,1-2,1.4l-.64-.13-1.36,7.08a1.57,1.57,0,0,1-2,1.39l-.72-.14A1.57,1.57,0,0,1,1157.12,361.16Z"/><path class="cls-9" d="M1124.73,211.73c-11.48-5.8-24.41-7.52-29.51-8.07h0a11,11,0,0,0-2.16-.2h0a12.57,12.57,0,0,0-5.63,1.38,11.86,11.86,0,0,0-6.52,8.76h0a5.84,5.84,0,0,1-7.89,4h0a11.86,11.86,0,0,0-10.92.1,12.49,12.49,0,0,0-4.44,3.72h0v0a12.09,12.09,0,0,0-1.11,1.85l0,0c-2.61,4.51-9,16.47-11,29.39h0l-.06.05c12.72,13.4,34.77,16.83,54,7.09s29-29.55,25.59-47.79a.49.49,0,0,0-.15-.27h0Z"/><path class="cls-10" d="M1070.45,245.78h0s0,0,0,0a23.12,23.12,0,0,0,34.86-14.29,4.64,4.64,0,0,0-3.18-5.26C1093.42,224,1075.1,224.75,1070.45,245.78Z"/><path class="cls-11" d="M1095.24,230.44c-5.8.38-15.06,2.05-24.45-4.09-7.75-5.4-19-6.17-29-1.09-13.79,7-20,22.43-13.9,34.48s20.08,16.55,36,9.15a18.67,18.67,0,0,0,1.76-1c11.41-6.41,23.32-15.51,32.75-33C1099.59,232.8,1097.63,230.29,1095.24,230.44Z"/><path class="cls-3" d="M1043,263c0-3.76,2.49-6.17,6-6.12,2.16,0,3.75.53,4.67,1.85.7,1,.34,1.64-.89,1.95l-.65.16a2.49,2.49,0,0,1-2-.4,2.08,2.08,0,0,0-1-.25c-1.21,0-2,1.13-2,2.92s.7,2.88,1.89,2.89a1.39,1.39,0,0,0,1.44-1.25H1050a1.34,1.34,0,0,1-1.5-1.45h0c0-.91.62-1.41,1.72-1.39l2.91,0c1.07,0,1.73.25,1.72,1.11v.27c0,3.88-2.29,6.11-6,6.07S1043,266.82,1043,263Z"/><path class="cls-3" d="M1056.54,262c-2.14-3.83-.6-6.82,2.14-8.35s6.06-1.25,8.2,2.58.59,6.82-2.14,8.35S1058.72,265.94,1056.54,262Zm6.74-3.77c-.85-1.52-2-1.95-2.9-1.45s-1.14,1.71-.3,3.23,2,2,2.93,1.48S1064.17,259.86,1063.28,258.26Z"/><path class="cls-3" d="M1067.87,255.6c-2.7-3.46-1.63-6.66.83-8.58s5.8-2.17,8.5,1.29,1.63,6.64-.83,8.57S1070.63,259.12,1067.87,255.6Zm6.08-4.77c-1.07-1.37-2.26-1.63-3.08-1s-.87,1.87.2,3.24,2.26,1.68,3.12,1S1075.08,252.27,1074,250.83Z"/><path class="cls-3" d="M1081.86,250l-6.74-5.83a1.53,1.53,0,0,1-.18-2.4l1.54-1.77c3.24-3.75,6.18-3.59,9.09-1.07s3.46,5.38.22,9.12l-1.53,1.78A1.52,1.52,0,0,1,1081.86,250Zm1.33-4.45c1.39-1.6.83-2.45-.38-3.49s-2.12-1.48-3.53.16l-.06.06,3.89,3.36Z"/><path class="cls-3" d="M1033.64,247.14a2,2,0,0,1-1.15.2,1.93,1.93,0,0,1-1.63-2.17c1-7.15,4.37-11.76,10.9-15a1.92,1.92,0,1,1,1.69,3.44c-5.35,2.63-8,6.23-8.79,12.06A1.91,1.91,0,0,1,1033.64,247.14Z"/><circle class="cls-3" cx="1031.53" cy="251.1" r="2.02"/><rect class="cls-5" x="785.61" y="224.84" width="117.24" height="37.48" rx="18.74" transform="translate(509.19 -568.71) rotate(51.49)"/><rect class="cls-12" x="823.84" y="228.94" width="40.22" height="29.28" rx="3.65" transform="translate(509.09 -568.48) rotate(51.49)"/><circle class="cls-13" cx="824.57" cy="228.24" r="1.21"/><circle class="cls-13" cx="820.46" cy="231.5" r="1.21"/><circle class="cls-13" cx="828.67" cy="224.97" r="1.21"/><circle class="cls-13" cx="832.78" cy="221.7" r="1.21"/><circle class="cls-13" cx="836.88" cy="218.44" r="1.21"/><circle class="cls-13" cx="824.36" cy="223.61" r="1.21"/><circle class="cls-13" cx="820.27" cy="226.87" r="1.21"/><circle class="cls-13" cx="816.18" cy="230.13" r="1.21"/><circle class="cls-13" cx="828.46" cy="220.35" r="1.21"/><circle class="cls-13" cx="832.55" cy="217.1" r="1.21"/><circle class="cls-13" cx="836.65" cy="213.84" r="1.21"/><circle class="cls-13" cx="819.74" cy="222.17" r="1.21"/><circle class="cls-13" cx="815.63" cy="225.43" r="1.21"/><circle class="cls-13" cx="823.84" cy="218.9" r="1.21"/><circle class="cls-13" cx="827.95" cy="215.63" r="1.21"/><circle class="cls-13" cx="832.06" cy="212.37" r="1.21"/><circle class="cls-13" cx="819.54" cy="217.54" r="1.21"/><circle class="cls-13" cx="815.44" cy="220.8" r="1.21"/><circle class="cls-13" cx="811.35" cy="224.06" r="1.21"/><circle class="cls-13" cx="823.63" cy="214.29" r="1.21"/><circle class="cls-13" cx="827.72" cy="211.03" r="1.21"/><circle class="cls-13" cx="831.82" cy="207.77" r="1.21"/><circle class="cls-13" cx="815.17" cy="216.42" r="1.21"/><circle class="cls-13" cx="811.06" cy="219.69" r="1.21"/><circle class="cls-13" cx="819.27" cy="213.15" r="1.21"/><circle class="cls-13" cx="823.38" cy="209.89" r="1.21"/><circle class="cls-13" cx="827.48" cy="206.62" r="1.21"/><circle class="cls-13" cx="814.96" cy="211.8" r="1.21"/><circle class="cls-13" cx="810.87" cy="215.05" r="1.21"/><circle class="cls-13" cx="806.78" cy="218.31" r="1.21"/><circle class="cls-13" cx="819.06" cy="208.54" r="1.21"/><circle class="cls-13" cx="823.15" cy="205.28" r="1.21"/><circle class="cls-13" cx="827.24" cy="202.02" r="1.21"/><circle class="cls-13" cx="810.46" cy="210.51" r="1.21"/><circle class="cls-13" cx="806.36" cy="213.78" r="1.21"/><circle class="cls-13" cx="814.57" cy="207.24" r="1.21"/><circle class="cls-13" cx="818.68" cy="203.98" r="1.21"/><circle class="cls-13" cx="822.78" cy="200.71" r="1.21"/><circle class="cls-13" cx="810.26" cy="205.89" r="1.21"/><circle class="cls-13" cx="806.17" cy="209.14" r="1.21"/><circle class="cls-13" cx="814.36" cy="202.63" r="1.21"/><circle class="cls-13" cx="818.45" cy="199.37" r="1.21"/><circle class="cls-13" cx="854.52" cy="265.53" r="1.24"/><circle class="cls-13" cx="850.31" cy="268.88" r="1.24"/><circle class="cls-13" cx="858.72" cy="262.19" r="1.24"/><circle class="cls-13" cx="862.93" cy="258.84" r="1.24"/><circle class="cls-13" cx="867.13" cy="255.5" r="1.24"/><circle class="cls-13" cx="859.09" cy="266.8" r="1.24"/><circle class="cls-13" cx="854.89" cy="270.13" r="1.24"/><circle class="cls-13" cx="850.7" cy="273.47" r="1.24"/><circle class="cls-13" cx="863.28" cy="263.46" r="1.24"/><circle class="cls-13" cx="867.47" cy="260.13" r="1.24"/><circle class="cls-13" cx="871.66" cy="256.79" r="1.24"/><circle class="cls-13" cx="859.46" cy="271.75" r="1.24"/><circle class="cls-13" cx="855.26" cy="275.09" r="1.24"/><circle class="cls-13" cx="863.67" cy="268.4" r="1.24"/><circle class="cls-13" cx="867.87" cy="265.06" r="1.24"/><circle class="cls-13" cx="872.07" cy="261.71" r="1.24"/><circle class="cls-13" cx="864.03" cy="273.01" r="1.24"/><circle class="cls-13" cx="859.84" cy="276.35" r="1.24"/><circle class="cls-13" cx="855.65" cy="279.68" r="1.24"/><circle class="cls-13" cx="868.22" cy="269.68" r="1.24"/><circle class="cls-13" cx="872.41" cy="266.34" r="1.24"/><circle class="cls-13" cx="876.6" cy="263.01" r="1.24"/><circle class="cls-13" cx="864.15" cy="277.63" r="1.24"/><circle class="cls-13" cx="859.94" cy="280.98" r="1.24"/><circle class="cls-13" cx="868.35" cy="274.29" r="1.24"/><circle class="cls-13" cx="872.55" cy="270.94" r="1.24"/><circle class="cls-13" cx="876.76" cy="267.6" r="1.24"/><circle class="cls-13" cx="868.71" cy="278.9" r="1.24"/><circle class="cls-13" cx="864.52" cy="282.23" r="1.24"/><circle class="cls-13" cx="860.33" cy="285.57" r="1.24"/><circle class="cls-13" cx="872.9" cy="275.56" r="1.24"/><circle class="cls-13" cx="877.1" cy="272.23" r="1.24"/><circle class="cls-13" cx="881.29" cy="268.89" r="1.24"/><circle class="cls-13" cx="868.96" cy="283.68" r="1.24"/><circle class="cls-13" cx="864.76" cy="287.03" r="1.24"/><circle class="cls-13" cx="873.16" cy="280.34" r="1.24"/><circle class="cls-13" cx="877.37" cy="276.99" r="1.24"/><circle class="cls-13" cx="881.57" cy="273.65" r="1.24"/><circle class="cls-13" cx="873.53" cy="284.95" r="1.24"/><circle class="cls-13" cx="869.34" cy="288.28" r="1.24"/><circle class="cls-13" cx="877.72" cy="281.61" r="1.24"/><circle class="cls-13" cx="881.91" cy="278.28" r="1.24"/><path class="cls-3" d="M834.22,230.75c2.17-1.73,4.2-1.08,5.43.47a3.58,3.58,0,0,1-.77,5.39c-2.21,1.76-4.19,1.07-5.43-.48S832,232.51,834.22,230.75Zm3,3.81c.86-.68,1-1.44.6-1.95s-1.18-.54-2,.14-1.05,1.45-.62,2S836.36,235.29,837.27,234.56Z"/><path class="cls-3" d="M839.37,237.72l2.46-2a1,1,0,0,1,1.51.17l.29.37a1,1,0,0,1-.18,1.51L841,239.76c-.75.6-1,1-.57,1.49s.83.38,1.58-.21l2.46-2a1,1,0,0,1,1.51.17l.3.38a1,1,0,0,1-.17,1.51l-2.48,2c-1.93,1.54-3.53,1.37-5-.45S837.41,239.28,839.37,237.72Z"/><path class="cls-3" d="M844.61,243.82a3.68,3.68,0,0,1,5.49.53,3.49,3.49,0,0,1,.61,3.75c-.36.71-.85.83-1.37.35l-.31-.29c-.53-.47-.65-.75-.55-1.19a1.2,1.2,0,0,0-.2-1.18c-.42-.53-1.21-.47-2,.15s-1,1.37-.58,1.89a1.14,1.14,0,0,0,1.07.45c.43,0,.75.23,1.08.81l.21.37c.39.68.06,1.1-1,1.28a3.39,3.39,0,0,1-3.18-1.47A3.62,3.62,0,0,1,844.61,243.82Z"/><path class="cls-3" d="M847.7,252.2l4.42-3.51a1,1,0,0,1,1.51.18l.29.36a1,1,0,0,1-.18,1.51l-1.3,1,.95,1.19,1.31-1a1,1,0,0,1,1.51.17l.29.36a1,1,0,0,1-.18,1.51l-4.41,3.51a1,1,0,0,1-1.51-.17l-.29-.36a1,1,0,0,1,.17-1.51l1.32-1-1-1.19-1.32,1a1,1,0,0,1-1.51-.17l-.29-.36A1,1,0,0,1,847.7,252.2Z"/><line class="cls-14" x1="840.96" y1="225.4" x2="860.74" y2="250.26"/><line class="cls-14" x1="827.55" y1="236.07" x2="847.33" y2="260.93"/><path class="cls-15" d="M948,222.07c-7.31-1.24-11.16-10.19-16.48-14.61-5.49-4.55-15-6.77-17.44-13.46-2.41-6.48,3.18-14.27,4.42-21.58s-1.48-16.51,2.94-21.83c4.55-5.5,14.21-4.48,20.89-7,6.49-2.42,13.06-9.6,20.37-8.36s11.16,10.18,16.49,14.6c5.49,4.55,14.94,6.77,17.43,13.46,2.42,6.48-3.18,14.27-4.42,21.58s1.48,16.51-2.93,21.84c-4.56,5.49-14.21,4.47-20.9,7C961.86,216.12,955.28,223.3,948,222.07Z"/><circle class="cls-5" cx="957.23" cy="168.52" r="17.77"/><path class="cls-16" d="M965.63,165.71a9.47,9.47,0,0,1-2.5,10.68"/><path class="cls-8" d="M927.72,197.61l9.87-12.16a1.71,1.71,0,0,1,2.66-.4l4,3a1.71,1.71,0,0,1,.39,2.66l-.12.17a1.72,1.72,0,0,1-2.67.39L940,189.89l-1.87,2.16,1.74,1.35a1.68,1.68,0,0,1,.45,2.59v0a1.68,1.68,0,0,1-2.62.33L936,195l-4.57,5.36a1.7,1.7,0,0,1-2.66.4l-.64-.48A1.7,1.7,0,0,1,927.72,197.61Z"/><path class="cls-8" d="M952.35,215.5l-.79-.2a2,2,0,0,1-1.64-2.1l-.51-10.27-4.63-1.21-3.15,5a2,2,0,0,1-2.45,1l-.82-.21a1.48,1.48,0,0,1-.93-2.51l9.79-13.94a2.09,2.09,0,0,1,2.49-1l1.44.38a2.08,2.08,0,0,1,1.71,2l1.53,21.2C954.52,215.17,953.69,215.86,952.35,215.5Zm-2.77-15.57,0-4.9a.3.3,0,0,0-.2-.3h0a.31.31,0,0,0-.35.13L946.26,199Z"/><path class="cls-8" d="M958.05,209.87l-1.31-16.7a1.71,1.71,0,0,1,1.75-2l.81-.07a1.72,1.72,0,0,1,2.06,1.75l1.3,16.69a1.71,1.71,0,0,1-1.74,2.06l-.82.06A1.7,1.7,0,0,1,958.05,209.87Z"/><path class="cls-8" d="M983,202.32c1.23,1.06,1.18,1.94-.39,2.64l-.78.35a2.08,2.08,0,0,1-2.6-.51l-7.66-6.16-.25.11-.85.34,2.61,6.58c.51,1.13.37,1.83-.76,2.34l-.77.34a1.71,1.71,0,0,1-2.51-1L962.83,193a1.71,1.71,0,0,1,1-2.52l3.29-1.46c4.41-2,6.2-.58,7.34,2a5.11,5.11,0,0,1,.2,4.42Zm-12.9-6.43c1.51-.67,1.38-1.76.94-2.74a1.77,1.77,0,0,0-2.64-1.05l-1,.45,1.69,3.79Z"/><polygon class="cls-4" points="764.97 326.19 764.28 322.46 768.01 323.17 765.25 320.55 768.68 318.93 764.92 318.43 766.74 315.11 763.41 316.92 762.93 313.15 761.29 316.58 758.69 313.82 759.38 317.55 755.65 316.84 758.4 319.45 754.97 321.08 758.74 321.57 756.91 324.9 760.25 323.09 760.73 326.86 762.37 323.43 764.97 326.19"/><polygon class="cls-4" points="781.8 330.23 769.75 327.95 771.98 340.01 763.57 331.09 758.28 342.16 756.72 329.99 745.94 335.84 751.83 325.08 739.66 323.48 750.75 318.23 741.86 309.78 753.91 312.06 751.68 300 760.09 308.92 765.38 297.85 766.94 310.02 777.72 304.17 771.83 314.93 784 316.53 772.91 321.78 781.8 330.23"/><path class="cls-4" d="M791.89,315.3l-16.49-2.18,8-14.6-14.62,7.94L766.64,290l-7.16,15-11.42-12.1,3,16.36-16.35-3.09,12.07,11.46-15,7.11,16.5,2.18-8,14.59,14.63-7.93,2.12,16.5,4.54-9.53a20.6,20.6,0,0,0,1.39,1.7,8.72,8.72,0,0,0,1.07,8.11,23.59,23.59,0,1,0,19.57-21.52l-6.74-6.4Z"/><path class="cls-4" d="M795.24,342.69a1.21,1.21,0,0,0,1.7-.06l.12-.15a1.21,1.21,0,0,0-.18-1.55,15.23,15.23,0,0,0-12.68-3.68,1.21,1.21,0,0,0-.94,1.42,1.2,1.2,0,0,0,1.42.93A12.92,12.92,0,0,1,795.24,342.69Z"/><path class="cls-4" d="M800.68,344.94a5,5,0,0,1-.54.68,5.57,5.57,0,0,1-7.89.26h0a8.44,8.44,0,0,0-6.75-2,5.58,5.58,0,0,1-2.19-11,19.54,19.54,0,0,1,16.56,4.77A5.56,5.56,0,0,1,800.68,344.94Zm-5.44-2.25h0Zm-9.73,1.21h0Zm-1.71-8.59h0Z"/><path class="cls-3" d="M762.23,329.19a16.1,16.1,0,0,0,6.48,12l1.21-1.79a14,14,0,0,1-5.56-10.95l-1.19-1.27Z"/><path class="cls-13" d="M767.28,325.13l8,1.51L769.38,321l7.38-3.49-8.09-1.07,3.92-7.16-7.18,3.89-1-8.1-3.51,7.37-5.6-5.94,1.48,8-8-1.51,5.92,5.62-7.38,3.49,8.09,1.07-3.92,7.16,7.18-3.9,1,8.1,2.58-5.39.94-2,1.19,1.27,4.41,4.67Zm-6.37,1.56-.48-3.76-3.33,1.81,1.82-3.33-3.76-.5,3.43-1.62-2.76-2.61,3.73.7-.69-3.73,2.6,2.76,1.64-3.42.48,3.76,3.34-1.81-1.82,3.33,3.76.49-3.43,1.63,2.75,2.61-3.73-.7.69,3.73-2.6-2.76Z"/><polygon class="cls-5" points="765.15 326.03 764.46 322.3 768.19 323 765.44 320.39 768.87 318.76 765.11 318.27 766.93 314.94 763.59 316.75 763.11 312.99 761.48 316.41 758.87 313.65 759.56 317.38 755.83 316.68 758.59 319.29 755.16 320.91 758.92 321.41 757.1 324.74 760.43 322.93 760.91 326.69 762.55 323.27 765.15 326.03"/><path d="M767.68,342.73a4.27,4.27,0,0,0,1.11,5.9,19.2,19.2,0,1,0,8.88-13.12,4.26,4.26,0,0,0-5.88,1.16l-1.87,2.76-1.21,1.79Zm15.77-4.23a1.18,1.18,0,0,1,.93-1.41,15.21,15.21,0,0,1,12.69,3.68,1.19,1.19,0,0,1,.17,1.54.44.44,0,0,1-.12.15,1.19,1.19,0,0,1-1.69.06,12.91,12.91,0,0,0-10.57-3.08A1.2,1.2,0,0,1,783.45,338.5Z"/><path class="cls-3" d="M795.43,342.52a1.19,1.19,0,0,0,1.69-.06.44.44,0,0,0,.12-.15,1.19,1.19,0,0,0-.17-1.54,15.21,15.21,0,0,0-12.69-3.68,1.18,1.18,0,0,0-.93,1.41,1.2,1.2,0,0,0,1.41.94A12.91,12.91,0,0,1,795.43,342.52Z"/></svg>