<?xml version="1.0" encoding="utf-8"?>
<!-- Generator: Adobe Illustrator 23.0.3, SVG Export Plug-In . SVG Version: 6.00 Build 0)  -->
<svg version="1.1" id="STICKERS" xmlns="http://www.w3.org/2000/svg" xmlns:xlink="http://www.w3.org/1999/xlink" x="0px" y="0px"
	 viewBox="0 0 1080 1080" style="enable-background:new 0 0 1080 1080;" xml:space="preserve">
<style type="text/css">
	.st0{fill:#FCA4E1;}
	.st1{stroke:#000000;stroke-width:85.7771;stroke-linecap:round;stroke-miterlimit:10;}
	.st2{fill:#FEDD3A;}
	.st3{fill:#016FEC;}
	.st4{fill:#FAFAFA;stroke:#010001;stroke-miterlimit:10;}
	.st5{fill:#02B46B;}
	.st6{fill:#FFFFFF;}
	.st7{fill:#F44D1A;}
	.st8{fill:none;stroke:#000000;stroke-width:3.1864;stroke-linecap:round;stroke-miterlimit:10;}
	.st9{fill:#100002;}
	.st10{fill:#FCA4E1;stroke:#FCA4E1;stroke-width:1.1221;stroke-miterlimit:10;}
	.st11{fill:#FAFAFA;}
	.st12{fill:#010001;}
	.st13{fill:none;stroke:#000000;stroke-width:2.2443;stroke-linecap:round;stroke-linejoin:round;stroke-miterlimit:10;}
	.st14{fill:#FFFFFF;stroke:#FFFFFF;stroke-width:11.0813;stroke-linecap:round;stroke-miterlimit:10;}
	.st15{fill:#FAFAFA;stroke:#010001;stroke-width:1.0347;stroke-linejoin:round;stroke-miterlimit:10;}
	.st16{fill:none;stroke:#000000;stroke-width:2.9859;stroke-linecap:round;stroke-miterlimit:10;}
	.st17{fill:none;stroke:#FFFFFF;stroke-width:33.4031;stroke-linecap:round;stroke-miterlimit:10;}
</style>
<g>
	<g>
		<path class="st0" d="M248.34,635.04c-20.81,0-37.75-16.93-37.75-37.75s16.93-37.75,37.75-37.75h39.63v21.88h-39.63
			c-8.75,0-15.86,7.12-15.86,15.86s7.12,15.86,15.86,15.86V635.04z"/>
	</g>
	<g>
		<path class="st0" d="M792.11,635.04v-21.88c8.75,0,15.86-7.12,15.86-15.86s-7.12-15.86-15.86-15.86h-43.96v-21.88h43.96
			c20.81,0,37.75,16.93,37.75,37.75S812.92,635.04,792.11,635.04z"/>
	</g>
	<g>
		<path class="st2" d="M378.04,359.2c-65.85,0-119.43-53.57-119.43-119.43c0-0.83-0.67-1.5-1.5-1.5s-1.5,0.67-1.5,1.5
			c0,65.85-53.57,119.43-119.43,119.43c-0.83,0-1.5,0.67-1.5,1.5s0.67,1.5,1.5,1.5c65.85,0,119.43,53.57,119.43,119.43
			c0,0.83,0.67,1.5,1.5,1.5s1.5-0.67,1.5-1.5c0-65.85,53.57-119.43,119.43-119.43c0.83,0,1.5-0.67,1.5-1.5
			S378.87,359.2,378.04,359.2z"/>
		<path class="st2" d="M943.81,681.63c-37.75,0-68.47-30.71-68.47-68.47c0-0.83-0.67-1.5-1.5-1.5s-1.5,0.67-1.5,1.5
			c0,37.75-30.72,68.47-68.47,68.47c-0.83,0-1.5,0.67-1.5,1.5s0.67,1.5,1.5,1.5c37.75,0,68.47,30.72,68.47,68.47
			c0,0.83,0.67,1.5,1.5,1.5s1.5-0.67,1.5-1.5c0-37.75,30.71-68.47,68.47-68.47c0.83,0,1.5-0.67,1.5-1.5S944.64,681.63,943.81,681.63
			z"/>
		<path class="st2" d="M425.19,263.38c-26.85,0-48.7-21.84-48.7-48.7c0-0.83-0.67-1.5-1.5-1.5s-1.5,0.67-1.5,1.5
			c0,26.85-21.84,48.7-48.7,48.7c-0.83,0-1.5,0.67-1.5,1.5s0.67,1.5,1.5,1.5c26.85,0,48.7,21.84,48.7,48.7c0,0.83,0.67,1.5,1.5,1.5
			s1.5-0.67,1.5-1.5c0-26.85,21.84-48.7,48.7-48.7c0.83,0,1.5-0.67,1.5-1.5S426.02,263.38,425.19,263.38z"/>
	</g>
	<path class="st3" d="M546.84,261.41v79.73c0,1.55,1.59,2.59,3.01,1.96l101.51-44.85c1.78-0.79,1.67-3.35-0.17-3.99l-101.51-34.88
		C548.29,258.91,546.84,259.94,546.84,261.41z"/>
	<g>
		<path class="st4" d="M533.96,379.37c-7.16,0-12.96-5.8-12.96-12.96v-107.7c0-7.16,5.8-12.96,12.96-12.96s12.96,5.8,12.96,12.96
			v107.7C546.93,373.57,541.12,379.37,533.96,379.37z"/>
	</g>
	<circle class="st5" cx="521.87" cy="615.86" r="249.46"/>
	<g>
		<rect x="248.34" y="613.15" class="st0" width="543.77" height="21.88"/>
	</g>
	<g>
		<path class="st6" d="M359.78,571.77v-63.71c0-7.9,4.26-12.16,12.16-12.16h17.26c34.53,0,44.26,12.77,44.26,35.62
			c0,22.86-9.73,34.77-43.89,34.77h-0.24v5.47c0,7.9-4.26,12.16-12.16,12.16h-5.23C364.03,583.92,359.78,579.67,359.78,571.77z
			 M394.55,541.49c7.29,0,8.75-5.35,8.75-10.46c0-4.99-1.46-10.09-8.75-10.09h-5.23v20.55H394.55z"/>
		<path class="st6" d="M513.47,569.58c4.43,9.33,1.82,14.35-9.12,14.35h-5.47c-7.05,0-11.5-3.18-13.86-9.73l-5.66-15.71
			c-0.58,0.01-1.16,0.02-1.76,0.02h-4.86v13.25c0,7.9-4.26,12.16-12.16,12.16h-5.35c-7.9,0-12.16-4.25-12.16-12.16v-63.71
			c0-7.9,4.26-12.16,12.16-12.16h22.98c30.88,0,37.69,12.77,37.69,30.64c0,9.12-3.19,18.27-11.27,24.44L513.47,569.58z
			 M477.48,538.57c7.29,0,8.75-4.62,8.75-9.36c0-4.5-1.46-9-8.75-9h-4.86v18.36H477.48z"/>
		<path class="st6" d="M598.37,569.58c4.43,9.33,1.82,14.35-9.12,14.35h-5.47c-7.05,0-11.5-3.18-13.86-9.73l-5.66-15.71
			c-0.58,0.01-1.16,0.02-1.76,0.02h-4.86v13.25c0,7.9-4.26,12.16-12.16,12.16h-5.35c-7.9,0-12.16-4.25-12.16-12.16v-63.71
			c0-7.9,4.25-12.16,12.16-12.16h22.98c30.88,0,37.69,12.77,37.69,30.64c0,9.12-3.19,18.27-11.27,24.44L598.37,569.58z
			 M562.38,538.57c7.29,0,8.75-4.62,8.75-9.36c0-4.5-1.46-9-8.75-9h-4.86v18.36H562.38z"/>
		<path class="st6" d="M683.27,569.58c4.43,9.33,1.82,14.35-9.12,14.35h-5.47c-7.05,0-11.5-3.18-13.86-9.73l-5.66-15.71
			c-0.58,0.01-1.16,0.02-1.76,0.02h-4.86v13.25c0,7.9-4.26,12.16-12.16,12.16h-5.35c-7.9,0-12.16-4.25-12.16-12.16v-63.71
			c0-7.9,4.26-12.16,12.16-12.16h22.98c30.88,0,37.69,12.77,37.69,30.64c0,9.12-3.19,18.27-11.27,24.44L683.27,569.58z
			 M647.28,538.57c7.29,0,8.75-4.62,8.75-9.36c0-4.5-1.46-9-8.75-9h-4.86v18.36H647.28z"/>
	</g>
	<g>
		<g>
			<path class="st6" d="M383.01,740.88v-63.71c0-7.9,4.26-12.16,12.16-12.16h31.98c7.9,0,12.16,4.25,12.16,12.16v1.34
				c0,7.9-4.26,12.16-12.16,12.16h-14.71v11.55h12.4c7.9,0,12.16,4.13,12.16,11.55v0.12c0,7.54-4.26,11.67-12.16,11.67h-12.4v15.32
				c0,7.9-4.26,12.16-12.16,12.16h-5.11C387.27,753.04,383.01,748.79,383.01,740.88z"/>
			<path class="st6" d="M447.96,740.88v-63.71c0-7.9,4.26-12.16,12.16-12.16h35.62c7.9,0,12.16,4.25,12.16,12.16v1.58
				c0,7.9-4.26,12.16-12.16,12.16h-18.36v7.78h16.17c7.9,0,12.16,3.65,12.16,10.21v0.12c0,6.69-4.26,10.33-12.16,10.33h-16.17v7.9
				h18.36c7.9,0,12.16,4.25,12.16,12.16v1.46c0,7.9-4.26,12.16-12.16,12.16h-35.62C452.22,753.04,447.96,748.79,447.96,740.88z"/>
			<path class="st6" d="M515.89,709.27c0-27.11,17.39-44.8,43.28-44.8c17.02,0,30.76,7.36,37.45,20.97
				c3.77,8.15,1.34,13.37-6.56,14.59l-4.74,0.73c-7.9,1.34-11.19,0.49-14.35-3.53c-3.65-4.74-7.05-6.57-11.92-6.57
				c-7.66,0-12.64,7.42-12.64,18.6c0,11.06,5.11,18.48,12.64,18.48c4.86,0,8.15-1.82,11.55-6.32c2.92-3.89,7.29-4.99,14.71-3.89
				l4.74,0.73c8.75,1.34,10.21,7.29,4.38,17.75c-6.2,11.55-19.45,17.74-35.26,17.74C532.79,753.76,515.89,736.87,515.89,709.27z"/>
			<path class="st6" d="M619.9,740.88v-49.97h-4.62c-7.9,0-12.16-4.26-12.16-12.16v-1.58c0-7.9,4.26-12.16,12.16-12.16h38.54
				c7.9,0,12.16,4.25,12.16,12.16v1.58c0,7.9-4.25,12.16-12.16,12.16h-4.5v49.97c0,7.9-4.26,12.16-12.16,12.16h-5.11
				C624.16,753.04,619.9,748.79,619.9,740.88z"/>
		</g>
	</g>
</g>
</svg>
