<svg xmlns="http://www.w3.org/2000/svg" width="225" height="240" viewBox="0 0 225 240">
    <g fill="none" fill-rule="evenodd">
        <path stroke="#5D6B81" stroke-width="3.6" d="M161.428 84.714l-67.135 36.508-11.58 6.297L4 84.714l78.714-42.805 65.09 35.396"/>
        <path stroke="#5D6B81" stroke-linecap="round" stroke-width="3.6" d="M40 114v8.927c0 16.885 18.489 30.573 41.295 30.573 22.807 0 41.296-13.688 41.296-30.573V114M22.59 105.665v13.613"/>
        <path stroke="#5D6B81" stroke-width="3.6" d="M25.645 121.713l3.59 12.66a3.6 3.6 0 0 1-3.463 4.582H18.59a3.6 3.6 0 0 1-3.463-4.583l3.591-12.659a3.6 3.6 0 0 1 6.927 0z"/>
        <path stroke="#FD5C63" stroke-linecap="square" d="M22 27L71 1"/>
        <path stroke="#FD5C63" stroke-linecap="square" stroke-width="4" d="M62 237l39-21M137 47l59-30"/>
        <path stroke="#FD5C63" stroke-linecap="square" d="M83 189l46-25M2 193l29-16M196 111l29-16"/>
        <path stroke="#FD5C63" stroke-width="2" d="M177.514 167.368l9.232-.534-3.773 8.444 8.424 3.818-7.265 5.722 5.684 7.296-9.092 1.69 1.643 9.102-8.837-2.728-2.775 8.822-6.557-6.522-6.556 6.522-2.775-8.822-8.837 2.728 1.643-9.101-9.092-1.691 5.684-7.296-7.265-5.722 8.424-3.818-3.774-8.444 9.233.534.583-9.23 7.927 4.764 4.805-7.902 4.806 7.902 7.927-4.764"/>
        <path stroke="#5D6B81" d="M53 158v46h76.168M190.445 160.669V33m-34.488-3H53v16.71"/>
    </g>
</svg>
