<svg xmlns="http://www.w3.org/2000/svg" width="42" height="32" viewBox="0 0 42 32">
    <g fill="none" fill-rule="evenodd" stroke="#FD5C63">
        <path d="M2.231 10.163l14.867-8.085a8 8 0 0 1 7.644 0l14.868 8.085a2 2 0 0 1 0 3.514l-14.868 8.085a8 8 0 0 1-7.644 0L2.231 13.677a2 2 0 0 1 0-3.514z"/>
        <path stroke-linecap="round" d="M9 20v2.486C9 27.188 14.149 31 20.5 31S32 27.188 32 22.486V20M4 17.742v3.791"/>
        <path d="M4.962 22.19l1.003 3.537A1 1 0 0 1 5.003 27H2.997a1 1 0 0 1-.963-1.273l1.004-3.537a1 1 0 0 1 1.924 0z"/>
    </g>
</svg>
