<?xml version="1.0" encoding="UTF-8"?>
<svg width="18px" height="22px" viewBox="0 0 18 22" version="1.1" xmlns="http://www.w3.org/2000/svg" xmlns:xlink="http://www.w3.org/1999/xlink">
    <!-- Generator: Sketch 53.2 (72643) - https://sketchapp.com -->
    <title>file-text</title>
    <desc>Created with Sketch.</desc>
    <g id="Symbols" stroke="none" stroke-width="1" fill="none" fill-rule="evenodd" stroke-linecap="round" stroke-linejoin="round">
        <g id="Top-Menu-white" transform="translate(-1167.000000, -11.000000)" stroke="#FD5C63">
            <g id="file-text" transform="translate(1176.000000, 22.000000) scale(1, -1) translate(-1176.000000, -22.000000) translate(1168.000000, 12.000000)">
                <g id="Shape">
                    <path d="M10,0 L2,0 C0.8954305,0 0,0.8954305 0,2 L0,18 C0,19.1045695 0.8954305,20 2,20 L14,20 C15.1045695,20 16,19.1045695 16,18 L16,6 L10,0 Z"></path>
                    <polyline points="10 0 10 6 16 6"></polyline>
                    <path d="M12,11 L4,11"></path>
                    <path d="M12,15 L4,15"></path>
                    <polyline points="6 7 5 7 4 7"></polyline>
                </g>
            </g>
        </g>
    </g>
</svg>