<?xml version="1.0"?>
<svg xmlns="http://www.w3.org/2000/svg" viewBox="0 0 26 26" width="20px" height="20px">
    <path style="text-indent:0;text-align:start;line-height:normal;text-transform:none;block-progression:tb;-inkscape-font-specification:Bitstream Vera Sans" d="M 13.96875 -0.03125 A 1.0001 1.0001 0 0 0 13.8125 0 A 1.0001 1.0001 0 0 0 13.46875 0.15625 C 13.46875 0.15625 10.15991 2.1940183 6.84375 5 C 5.1856699 6.4029908 3.5369229 7.9931496 2.25 9.65625 C 0.96307706 11.31935 0 13.082687 0 14.90625 C 0 15.81266 0.43125992 16.607769 0.96875 17.09375 C 1.5062401 17.579731 2.101958 17.815495 2.625 18.03125 C 3.148042 18.247005 3.5912852 18.445352 3.8125 18.59375 C 4.0337148 18.742148 4 18.688377 4 18.8125 C 4 18.752885 3.9716585 18.910427 3.75 19.1875 C 3.5283415 19.464573 3.1658285 19.827762 2.78125 20.21875 C 2.0120931 21.000726 1 21.950694 1 23.40625 C 1 24.095956 1.3263943 24.709367 1.75 25.09375 C 2.1736057 25.478133 2.6623829 25.692676 3.09375 25.8125 C 3.9564841 26.052148 4.75 26 4.75 26 A 1.001098 1.001098 0 0 0 4.65625 24 C 4.65625 24 4.1122659 24.01035 3.625 23.875 C 3.3813671 23.807324 3.1763943 23.699992 3.09375 23.625 C 3.0111057 23.550008 3 23.566544 3 23.40625 C 3 23.061806 3.4879069 22.368024 4.21875 21.625 C 4.5841715 21.253488 4.9716585 20.863552 5.3125 20.4375 C 5.6533415 20.011448 6 19.522115 6 18.8125 C 6 17.986623 5.4662852 17.292227 4.9375 16.9375 C 4.4087148 16.582773 3.851958 16.384245 3.375 16.1875 C 2.898042 15.990755 2.4937599 15.785894 2.28125 15.59375 C 2.0687401 15.401606 2 15.29984 2 14.90625 C 2 13.829813 2.6619229 12.39315 3.8125 10.90625 C 4.9630771 9.4193504 6.5643301 7.8782592 8.15625 6.53125 C 11.34009 3.8372317 14.53125 1.84375 14.53125 1.84375 A 1.0001 1.0001 0 0 0 13.96875 -0.03125 z M 22.1875 5.9375 C 21.7875 5.9375 21.39375 6.10625 21.09375 6.40625 L 20.40625 7.09375 L 24.90625 11.59375 L 25.5 10.8125 C 26.1 10.2125 26.1 9.19375 25.5 8.59375 L 23.3125 6.40625 C 23.0125 6.10625 22.5875 5.9375 22.1875 5.9375 z M 19.59375 7.8125 L 18.59375 8.8125 L 23.1875 13.5 L 24.3125 12.5 L 19.59375 7.8125 z M 17.90625 9.5 L 8.375 18.90625 A 1.0001 1.0001 0 0 0 7.9375 19.53125 L 6.625 24.125 A 1.0001 1.0001 0 0 0 7.875 25.375 L 12.46875 24.0625 A 1.0045064 1.0045064 0 0 0 13.125 23.5 L 22.59375 14.1875 L 20.6875 12.40625 L 19.5 11.1875 L 17.90625 9.5 z M 9.71875 20.59375 L 11.3125 20.6875 L 11.40625 22.28125 L 9.8125 22.71875 L 9.28125 22.15625 L 9.71875 20.59375 z" overflow="visible" enable-background="accumulate" font-family="Bitstream Vera Sans"/>
</svg>
