<svg xmlns="http://www.w3.org/2000/svg" width="49" height="33" viewBox="0 0 49 33">
    <g fill="none" fill-rule="evenodd" stroke="#FFF" stroke-linecap="round">
        <path stroke-linejoin="round" d="M11.683 17.152v10.72c2.272 0 4.116 1.853 4.116 4.138h27.989c0-2.285 1.843-4.138 4.116-4.138V12.9a4.951 4.951 0 0 1-4.042-4.064H14.2"/>
        <path stroke-linejoin="round" d="M.088.623h20.77c5.354 0 10.169 3.277 12.158 8.276H13.259c-.91 0-1.647.74-1.647 1.655a1.65 1.65 0 0 0 1.647 1.655h8.032a2.46 2.46 0 0 1 1.746.727c.965.97.965 2.542 0 3.512a2.465 2.465 0 0 1-1.746.727h-10.3c-2.304 0-4.583-.486-6.688-1.427L.088 13.864M47.99 12.951V8.888h-4.043a4.951 4.951 0 0 0 4.042 4.063zM43.873 31.96h4.116v-4.138c-2.273 0-4.116 1.853-4.116 4.137zM11.597 27.822v4.137h4.116c0-2.284-1.843-4.137-4.116-4.137zM31.68 18.6a1.826 1.826 0 0 0-1.826-1.826h-.18a1.83 1.83 0 0 0 0 3.659h.154a1.851 1.851 0 0 1 0 3.702h-.259a1.726 1.726 0 0 1-1.725-1.726"/>
        <path d="M28.667 24v1.333M28.667 15.333v1.334M30.667 24v1.333M30.667 15.333v1.334"/>
    </g>
</svg>
