<svg xmlns="http://www.w3.org/2000/svg" width="283" height="209" viewBox="0 0 283 209">
    <g fill="none" fill-rule="evenodd">
        <g stroke="#FD5C63" stroke-linecap="square">
            <path stroke-width="4" d="M189 3l-56 30"/>
            <path d="M146 187l-29 16M280 55l-41 22"/>
            <path stroke-width="4" d="M280 150l-39 21M41 121L3 141"/>
            <path d="M70 28L20 56M94 188l-39 20"/>
        </g>
        <path stroke="#5D6B81" stroke-width="3" d="M97.402 124.234v29.18c7.86 0 14.235 6.41 14.235 14.314h96.795c0-7.904 6.374-14.314 14.235-14.314v-51.788c-7.157-1.222-12.763-6.859-13.978-14.056h-29.636"/>
        <path stroke="#5D6B81" stroke-linecap="round" stroke-linejoin="round" stroke-width="3" d="M222.963 101.801V87.745h-13.978c1.215 7.197 6.82 12.834 13.978 14.056zM208.727 167.554h14.235V153.24c-7.86 0-14.235 6.41-14.235 14.314zM97.107 153.24v14.314h14.234c0-7.904-6.374-14.314-14.234-14.314zM166.558 121.34a6.315 6.315 0 0 0-6.315-6.316h-.622a6.328 6.328 0 0 0 0 12.656h.534a6.404 6.404 0 1 1 0 12.807h-.892a5.97 5.97 0 0 1-5.97-5.97"/>
        <path stroke="#5D6B81" stroke-linecap="round" stroke-width="3" d="M156.139 140.02v4.613M156.139 110.04v4.613M163.056 140.02v4.613M163.056 110.04v4.613"/>
        <path stroke="#FD5C63" stroke-width="2" d="M57.303 59.155h71.828c18.519 0 35.17 11.336 42.049 28.627h-68.326c-3.146 0-5.694 2.563-5.694 5.726s2.548 5.725 5.694 5.725h27.777c2.266 0 4.438.905 6.038 2.517 3.337 3.352 3.337 8.791 0 12.146a8.525 8.525 0 0 1-6.038 2.514H95.007a56.652 56.652 0 0 1-23.125-4.936l-14.58-6.515"/>
    </g>
</svg>
