<svg xmlns="http://www.w3.org/2000/svg" width="301" height="246" viewBox="0 0 301 246">
    <g fill="none" fill-rule="evenodd">
        <path stroke="#5D6B81" stroke-width="3" d="M186.092 182.916c-14.961 11.444-28.498 16.647-32.091 16.647-4.541 0-24.977-8.315-44.09-27.042C93.072 156.021 73 127.21 73 83.641V54.008m0-12.298c28.517-8.097 55.074-19.396 81.002-34.463 25.28 14.667 53.162 26.528 80.998 34.461v41.935c0 31.634-10.581 55.488-22.824 72.499"/>
        <path stroke="#5D6B81" d="M119.73 100.502A32.368 32.368 0 0 1 140.5 93c17.95 0 32.5 14.55 32.5 32.5M140.5 158c-17.95 0-32.5-14.55-32.5-32.5"/>
        <path stroke="#5D6B81" stroke-width="3" d="M121 126c0 10.77 8.73 19.5 19.5 19.5S160 136.77 160 126"/>
        <circle cx="199" cy="79" r="17" stroke="#5D6B81" stroke-width="3"/>
        <path stroke="#5D6B81" d="M192 80a7 7 0 0 0 14 0"/>
        <circle cx="133" cy="118" r="3" fill="#5D6B81"/>
        <circle cx="148" cy="118" r="3" fill="#5D6B81"/>
        <path stroke="#FD5C63" stroke-width="2" d="M98 63.609L93.674 66l.826-5.065-3.5-3.587 4.837-.74L98 52l2.163 4.609 4.837.739-3.5 3.587.826 5.065zM158 63.609L153.674 66l.826-5.065-3.5-3.587 4.837-.74L158 52l2.163 4.609 4.837.739-3.5 3.587.826 5.065zM138 63.609L133.674 66l.826-5.065-3.5-3.587 4.837-.74L138 52l2.163 4.609 4.837.739-3.5 3.587.826 5.065zM118 63.609L113.674 66l.826-5.065-3.5-3.587 4.837-.74L118 52l2.163 4.609 4.837.739-3.5 3.587.826 5.065zM175 172.609L170.674 175l.826-5.065-3.5-3.587 4.837-.74L175 161l2.163 4.609 4.837.739-3.5 3.587.826 5.065zM215 172.609L210.674 175l.826-5.065-3.5-3.587 4.837-.74L215 161l2.163 4.609 4.837.739-3.5 3.587.826 5.065z"/>
        <path stroke="#FD5C63" d="M247 78.03l10.02-1.498 4.48-9.338 4.48 9.338M276 78.03l-7.25 7.268 1.711 10.264m-8.961-4.846l-8.961 4.846 1.711-10.264"/>
        <path stroke="#FD5C63" stroke-width="2" d="M195 172.609L190.674 175l.826-5.065-3.5-3.587 4.837-.74L195 161l2.163 4.609 4.837.739-3.5 3.587.826 5.065z"/>
        <path stroke="#FD5C63" d="M196 11.609L191.674 14l.826-5.065-3.5-3.587 4.837-.74L196 0l2.163 4.609 4.837.739-3.5 3.587.826 5.065zM216 11.609L211.674 14l.826-5.065-3.5-3.587 4.837-.74L216 0l2.163 4.609 4.837.739-3.5 3.587.826 5.065zM60.52 103.817l-5.38 5.244 1.27 7.405-6.65-3.496m-6.65 3.496l1.27-7.405-5.38-5.244 7.435-1.08L49.76 96l3.325 6.737"/>
        <path stroke="#FD5C63" stroke-linecap="square" d="M39 32L88 6"/>
        <path stroke="#FD5C63" stroke-linecap="square" stroke-width="4" d="M39 172l39-21M239 131l59-30"/>
        <path stroke="#FD5C63" stroke-linecap="square" d="M132 245l70-38M0 223l91-47"/>
    </g>
</svg>
