<svg xmlns="http://www.w3.org/2000/svg" width="262" height="205" viewBox="0 0 262 205">
    <g fill="none" fill-rule="evenodd">
        <path stroke="#FD5C63" stroke-linecap="square" d="M0 148l49-26M179 35l49-26"/>
        <path stroke="#FD5C63" stroke-linecap="square" stroke-width="4" d="M6 81l36-19M209 91l50-26"/>
        <path stroke="#FD5C63" stroke-linecap="square" d="M179 196l60-32M90 204l28-15M118 16l28-15"/>
        <g transform="translate(51 24)">
            <circle cx="42" cy="121" r="12" stroke="#FD5C63" stroke-linecap="round" stroke-linejoin="round" stroke-width="2"/>
            <circle cx="115" cy="121" r="12" stroke="#FD5C63" stroke-linecap="round" stroke-linejoin="round" stroke-width="2"/>
            <path stroke="#5D6B81" stroke-linecap="square" stroke-width="3" d="M28.232 30.333H133L122.844 81.23c-1.141 5.764-6.236 9.88-12.091 9.767h-63.9c-6.11.052-11.298-4.477-12.092-10.556l-9.189-69.886C24.784 4.523 19.665.009 13.602 0H0"/>
        </g>
    </g>
</svg>
